<svg width="16" height="15" viewBox="0 0 16 15" fill="none" xmlns="http://www.w3.org/2000/svg">
<path d="M14.6467 11.7199C14.6467 11.9599 14.5933 12.2066 14.48 12.4466C14.3667 12.6866 14.22 12.9133 14.0267 13.1266C13.7 13.4866 13.34 13.7466 12.9333 13.9133C12.5333 14.0799 12.1 14.1666 11.6333 14.1666C10.9533 14.1666 10.2267 14.0066 9.46001 13.6799C8.69334 13.3533 7.92668 12.9133 7.16668 12.3599C6.40001 11.7999 5.67334 11.1799 4.98001 10.4933C4.29334 9.79992 3.67334 9.07325 3.12001 8.31325C2.57334 7.55325 2.13334 6.79325 1.81334 6.03992C1.49334 5.27992 1.33334 4.55325 1.33334 3.85992C1.33334 3.40659 1.41334 2.97325 1.57334 2.57325C1.73334 2.16659 1.98668 1.79325 2.34001 1.45992C2.76668 1.03992 3.23334 0.833252 3.72668 0.833252C3.91334 0.833252 4.10001 0.873252 4.26668 0.953252C4.44001 1.03325 4.59334 1.15325 4.71334 1.32659L6.26001 3.50659C6.38001 3.67325 6.46668 3.82659 6.52668 3.97325C6.58668 4.11325 6.62001 4.25325 6.62001 4.37992C6.62001 4.53992 6.57334 4.69992 6.48001 4.85325C6.39334 5.00658 6.26668 5.16658 6.10668 5.32658L5.60001 5.85325C5.52668 5.92658 5.49334 6.01325 5.49334 6.11992C5.49334 6.17325 5.50001 6.21992 5.51334 6.27325C5.53334 6.32658 5.55334 6.36658 5.56668 6.40658C5.68668 6.62658 5.89334 6.91325 6.18668 7.25992C6.48668 7.60659 6.80668 7.95992 7.15334 8.31325C7.51334 8.66658 7.86001 8.99325 8.21334 9.29325C8.56001 9.58658 8.84668 9.78658 9.07334 9.90658C9.10668 9.91992 9.14668 9.93992 9.19334 9.95992C9.24668 9.97992 9.30001 9.98658 9.36001 9.98658C9.47334 9.98658 9.56001 9.94659 9.63334 9.87325L10.14 9.37325C10.3067 9.20659 10.4667 9.07992 10.62 8.99992C10.7733 8.90658 10.9267 8.85992 11.0933 8.85992C11.22 8.85992 11.3533 8.88658 11.5 8.94658C11.6467 9.00658 11.8 9.09325 11.9667 9.20659L14.1733 10.7733C14.3467 10.8933 14.4667 11.0333 14.54 11.1999C14.6067 11.3666 14.6467 11.5333 14.6467 11.7199Z" stroke="white" stroke-opacity="0.7" stroke-width="1.5" stroke-miterlimit="10"/>
<path d="M12.3333 5.49984C12.3333 5.09984 12.02 4.4865 11.5533 3.9865C11.1267 3.5265 10.56 3.1665 10 3.1665" stroke="white" stroke-opacity="0.7" stroke-width="1.5" stroke-linecap="round" stroke-linejoin="round"/>
<path d="M14.6667 5.49992C14.6667 2.91992 12.58 0.833252 10 0.833252" stroke="white" stroke-opacity="0.7" stroke-width="1.5" stroke-linecap="round" stroke-linejoin="round"/>
</svg>
