<svg width="16" height="15" viewBox="0 0 16 15" fill="none" xmlns="http://www.w3.org/2000/svg">
<path d="M14.6468 11.7199C14.6468 11.9599 14.5935 12.2066 14.4802 12.4466C14.3668 12.6866 14.2202 12.9133 14.0268 13.1266C13.7002 13.4866 13.3402 13.7466 12.9335 13.9133C12.5335 14.0799 12.1002 14.1666 11.6335 14.1666C10.9535 14.1666 10.2268 14.0066 9.46016 13.6799C8.6935 13.3533 7.92683 12.9133 7.16683 12.3599C6.40016 11.7999 5.6735 11.1799 4.98016 10.4933C4.2935 9.79992 3.6735 9.07325 3.12016 8.31325C2.5735 7.55325 2.1335 6.79325 1.8135 6.03992C1.4935 5.27992 1.3335 4.55325 1.3335 3.85992C1.3335 3.40659 1.4135 2.97325 1.5735 2.57325C1.7335 2.16659 1.98683 1.79325 2.34016 1.45992C2.76683 1.03992 3.2335 0.833252 3.72683 0.833252C3.9135 0.833252 4.10016 0.873252 4.26683 0.953252C4.44016 1.03325 4.5935 1.15325 4.7135 1.32659L6.26016 3.50659C6.38016 3.67325 6.46683 3.82659 6.52683 3.97325C6.58683 4.11325 6.62016 4.25325 6.62016 4.37992C6.62016 4.53992 6.5735 4.69992 6.48016 4.85325C6.3935 5.00658 6.26683 5.16658 6.10683 5.32658L5.60016 5.85325C5.52683 5.92658 5.4935 6.01325 5.4935 6.11992C5.4935 6.17325 5.50016 6.21992 5.5135 6.27325C5.5335 6.32658 5.5535 6.36658 5.56683 6.40658C5.68683 6.62658 5.8935 6.91325 6.18683 7.25992C6.48683 7.60659 6.80683 7.95992 7.1535 8.31325C7.5135 8.66658 7.86016 8.99325 8.2135 9.29325C8.56016 9.58658 8.84683 9.78658 9.0735 9.90658C9.10683 9.91992 9.14683 9.93992 9.1935 9.95992C9.24683 9.97992 9.30016 9.98658 9.36016 9.98658C9.4735 9.98658 9.56016 9.94659 9.6335 9.87325L10.1402 9.37325C10.3068 9.20659 10.4668 9.07992 10.6202 8.99992C10.7735 8.90658 10.9268 8.85992 11.0935 8.85992C11.2202 8.85992 11.3535 8.88658 11.5002 8.94658C11.6468 9.00658 11.8002 9.09325 11.9668 9.20659L14.1735 10.7733C14.3468 10.8933 14.4668 11.0333 14.5402 11.1999C14.6068 11.3666 14.6468 11.5333 14.6468 11.7199Z" stroke="#B79E56" stroke-width="1.5" stroke-miterlimit="10"/>
</svg>
