<svg width="97" height="97" viewBox="0 0 97 97" fill="none" xmlns="http://www.w3.org/2000/svg">
<path d="M48.5 80.486C39.1507 80.486 31.48 79.2953 25.488 76.914C19.496 74.5326 16.5 71.466 16.5 67.714V28.486C16.5 25.1633 19.62 22.3326 25.86 19.994C32.1 17.6553 39.6467 16.486 48.5 16.486C57.3533 16.486 64.9 17.6553 71.14 19.994C77.38 22.3326 80.5 25.1633 80.5 28.486V67.718C80.5 71.4646 77.504 74.53 71.512 76.914C65.52 79.298 57.8493 80.4886 48.5 80.486ZM48.5 36.046C54.228 36.046 60.0013 35.2473 65.82 33.65C71.644 32.0526 75.1267 30.3126 76.268 28.43C75.1747 26.446 71.748 24.626 65.988 22.97C60.228 21.314 54.3987 20.486 48.5 20.486C42.6893 20.486 36.868 21.2846 31.036 22.882C25.204 24.4793 21.7173 26.226 20.576 28.122C21.664 30.122 25.0987 31.9433 30.88 33.586C36.6613 35.2286 42.5347 36.046 48.5 36.046ZM48.5 56.178C51.2467 56.178 53.9467 56.0446 56.6 55.778C59.2533 55.5113 61.788 55.1153 64.204 54.59C66.62 54.0646 68.8667 53.41 70.944 52.626C73.0213 51.842 74.8733 50.9553 76.5 49.966V33.586C74.8707 34.5726 73.0173 35.458 70.94 36.242C68.868 37.026 66.6227 37.6793 64.204 38.202C61.7853 38.73 59.2507 39.1273 56.6 39.394C53.9493 39.6606 51.2493 39.794 48.5 39.794C45.6467 39.794 42.8747 39.6473 40.184 39.354C37.4933 39.0606 34.952 38.6526 32.56 38.13C30.168 37.6073 27.9507 36.9646 25.908 36.202C23.8653 35.4393 22.0627 34.5673 20.5 33.586V49.97C22.0653 50.9566 23.868 51.8286 25.908 52.586C27.948 53.3433 30.1653 53.986 32.56 54.514C34.9493 55.0393 37.4907 55.4486 40.184 55.742C42.8773 56.0353 45.6493 56.1806 48.5 56.178ZM48.5 76.486C51.9267 76.486 55.184 76.2913 58.272 75.902C61.36 75.5126 64.136 74.9606 66.6 74.246C69.064 73.5313 71.1573 72.6766 72.88 71.682C74.6027 70.6873 75.8093 69.614 76.5 68.462V53.97C74.8707 54.9566 73.0173 55.842 70.94 56.626C68.868 57.41 66.6227 58.0646 64.204 58.59C61.7853 59.1153 59.2507 59.5113 56.6 59.778C53.9493 60.0446 51.2493 60.178 48.5 60.178C45.6467 60.178 42.8747 60.0313 40.184 59.738C37.4933 59.4446 34.952 59.0366 32.56 58.514C30.168 57.9913 27.9507 57.3486 25.908 56.586C23.8653 55.8286 22.0627 54.9566 20.5 53.97V68.486C21.1933 69.6913 22.3973 70.774 24.112 71.734C25.8267 72.694 27.9147 73.53 30.376 74.242C32.8373 74.954 35.6173 75.5073 38.716 75.902C41.8147 76.2966 45.076 76.4913 48.5 76.486Z" fill="#3F87FE"/>
</svg>
