<svg width="24" height="24" viewBox="0 0 24 24" fill="none" xmlns="http://www.w3.org/2000/svg">
<path d="M20.4 1.2002H3.59995C2.27995 1.2002 1.19995 2.2802 1.19995 3.6002V20.4002C1.19995 21.7214 2.27995 22.8002 3.59995 22.8002H12V14.4002H9.59995V11.4302H12V8.9702C12 6.3734 13.4544 4.5494 16.5192 4.5494L18.6828 4.5518V7.6778H17.2464C16.0536 7.6778 15.6 8.573 15.6 9.4034V11.4314H18.6816L18 14.4002H15.6V22.8002H20.4C21.72 22.8002 22.8 21.7214 22.8 20.4002V3.6002C22.8 2.2802 21.72 1.2002 20.4 1.2002Z" fill="#CCCCCC"/>
</svg>
