<svg width="52" height="52" viewBox="0 0 52 52" fill="none" xmlns="http://www.w3.org/2000/svg">
<path d="M26.0059 50.7008C39.8098 50.7008 51 39.5749 51 25.8504C51 12.1259 39.8098 1 26.0059 1C12.202 1 1.01172 12.1259 1.01172 25.8504C1.01172 39.5749 12.202 50.7008 26.0059 50.7008Z" stroke="#B7B7B7"/>
<path d="M24.7062 33.1975L24.6858 26.9382H22.0078V24.2557H24.6858V22.4673C24.6858 20.0538 26.1778 18.8906 28.3272 18.8906C29.3568 18.8906 30.2417 18.9674 30.4995 19.0017V21.524L29.0088 21.5247C27.8399 21.5247 27.6135 22.0811 27.6135 22.8977V24.2557H30.9343L30.0416 26.9382H27.6135V33.1975H24.7062Z" fill="#1E2532"/>
</svg>
