<svg width="52" height="51" viewBox="0 0 52 51" fill="none" xmlns="http://www.w3.org/2000/svg">
<path d="M26.0059 50.4015C39.8098 50.4015 51 39.2756 51 25.5511C51 11.8266 39.8098 0.700684 26.0059 0.700684C12.202 0.700684 1.01172 11.8266 1.01172 25.5511C1.01172 39.2756 12.202 50.4015 26.0059 50.4015Z" stroke="#B7B7B7"/>
<g clip-path="url(#clip0_2_1662)">
<path d="M29.7552 18.0991H22.2569C20.1864 18.0991 18.5078 19.768 18.5078 21.8267V29.2818C18.5078 31.3405 20.1864 33.0094 22.2569 33.0094H29.7552C31.8258 33.0094 33.5043 31.3405 33.5043 29.2818V21.8267C33.5043 19.768 31.8258 18.0991 29.7552 18.0991Z" stroke="#1E2532" stroke-width="2" stroke-linecap="round" stroke-linejoin="round"/>
<path d="M29.0052 25.0852C29.0978 25.7056 28.9912 26.3393 28.7006 26.896C28.4101 27.4528 27.9503 27.9043 27.3868 28.1862C26.8233 28.4682 26.1847 28.5664 25.5619 28.4668C24.939 28.3671 24.3636 28.0747 23.9175 27.6312C23.4715 27.1877 23.1774 26.6156 23.0772 25.9963C22.9769 25.3771 23.0757 24.7421 23.3593 24.1819C23.6429 23.6216 24.097 23.1645 24.657 22.8756C25.2169 22.5868 25.8543 22.4808 26.4783 22.5728C27.1149 22.6666 27.7042 22.9615 28.1592 23.414C28.6142 23.8664 28.9108 24.4523 29.0052 25.0852Z" stroke="#1E2532" stroke-width="2" stroke-linecap="round" stroke-linejoin="round"/>
<ellipse cx="30.1289" cy="21.4518" rx="1.125" ry="1.11827" fill="white"/>
</g>
<defs>
<clipPath id="clip0_2_1662">
<rect width="17.9958" height="17.8923" fill="white" transform="translate(17.0078 16.6069)"/>
</clipPath>
</defs>
</svg>
