<svg width="97" height="97" viewBox="0 0 97 97" fill="none" xmlns="http://www.w3.org/2000/svg">
<path d="M15.3 40.486C15.3 44.358 15.98 48.1753 17.34 51.938C18.7027 55.698 20.7894 59.1886 23.6 62.41C23.9947 62.8366 24.2174 63.3153 24.268 63.846C24.3187 64.3766 24.14 64.846 23.732 65.254C23.324 65.662 22.8401 65.822 22.2801 65.734C21.72 65.646 21.2454 65.386 20.8561 64.954C17.6854 61.362 15.3467 57.4886 13.84 53.334C12.3307 49.1793 11.576 44.8966 11.576 40.486C11.576 36.0753 12.3307 31.7926 13.84 27.638C15.3494 23.4833 17.6881 19.61 20.8561 16.018C21.2481 15.5913 21.7227 15.3313 22.2801 15.238C22.8374 15.1473 23.3214 15.3073 23.732 15.718C24.14 16.126 24.3187 16.5953 24.268 17.126C24.2174 17.6566 23.9947 18.1366 23.6 18.566C20.7894 21.782 18.704 25.2713 17.344 29.034C15.9814 32.7966 15.3 36.614 15.3 40.486ZM28.5 40.486C28.5 42.726 28.864 44.9366 29.592 47.118C30.32 49.2966 31.48 51.33 33.072 53.218C33.3974 53.6446 33.5734 54.106 33.6 54.602C33.6267 55.1006 33.4347 55.554 33.024 55.962C32.6134 56.37 32.16 56.5593 31.664 56.53C31.168 56.5006 30.7467 56.2713 30.4 55.842C28.5334 53.594 27.1294 51.138 26.188 48.474C25.2467 45.81 24.776 43.1473 24.776 40.486C24.776 37.8246 25.2467 35.162 26.188 32.498C27.1294 29.834 28.5334 27.3793 30.4 25.134C30.744 24.7073 31.1654 24.478 31.664 24.446C32.16 24.4113 32.6134 24.598 33.024 25.006C33.4347 25.414 33.6227 25.8806 33.5881 26.406C33.5534 26.9313 33.3467 27.4073 32.968 27.834C31.496 29.6526 30.3841 31.6486 29.632 33.822C28.8774 35.9926 28.5 38.214 28.5 40.486ZM39.584 73.87L37.4761 80.502C37.3134 80.9286 37.0654 81.262 36.732 81.502C36.3987 81.7473 36.012 81.87 35.572 81.87C34.852 81.87 34.3054 81.61 33.932 81.09C33.5587 80.57 33.4694 79.958 33.6641 79.254L44.4641 46.91C43.2934 46.2326 42.392 45.2993 41.76 44.11C41.128 42.9206 40.8107 41.7126 40.808 40.486C40.808 38.3526 41.5574 36.538 43.056 35.042C44.5547 33.546 46.3694 32.7966 48.5 32.794C50.6307 32.7913 52.4467 33.5406 53.9481 35.042C55.4494 36.5433 56.1974 38.358 56.1921 40.486C56.1921 41.7126 55.9014 42.8953 55.32 44.034C54.7387 45.1726 53.812 46.1313 52.5401 46.91L63.34 79.254C63.5347 79.8913 63.4481 80.4873 63.0801 81.042C62.7121 81.5966 62.1707 81.8727 61.4561 81.87C61.0134 81.87 60.6347 81.7526 60.32 81.518C60.0054 81.2833 59.7654 80.9446 59.6 80.502L57.44 73.87H39.584ZM40.952 69.87H56.048L48.5 47.102L40.952 69.87ZM68.5 40.486C68.5 38.398 68.1227 36.226 67.368 33.97C66.616 31.714 65.4694 29.642 63.9281 27.754C63.6027 27.3273 63.4267 26.866 63.4001 26.37C63.3734 25.8713 63.5654 25.418 63.9761 25.01C64.3867 24.602 64.844 24.4126 65.348 24.442C65.8521 24.4713 66.2694 24.7006 66.6 25.13C68.4507 27.378 69.8427 29.846 70.7761 32.534C71.7094 35.222 72.192 37.898 72.224 40.562C72.224 43.2233 71.7654 45.874 70.848 48.514C69.9307 51.154 68.5147 53.5966 66.6 55.842C66.256 56.266 65.836 56.494 65.34 56.526C64.8414 56.5606 64.3881 56.374 63.98 55.966C63.572 55.558 63.3827 55.0913 63.412 54.566C63.4414 54.0406 63.6481 53.566 64.0321 53.142C65.5041 51.3206 66.616 49.3233 67.368 47.15C68.1227 44.9793 68.5 42.758 68.5 40.486ZM81.7 40.486C81.7 36.614 81.0201 32.7966 79.66 29.034C78.2974 25.274 76.2107 21.7833 73.4001 18.562C73.0054 18.1353 72.7827 17.6566 72.7321 17.126C72.6814 16.5953 72.86 16.126 73.268 15.718C73.676 15.31 74.16 15.15 74.7201 15.238C75.2801 15.326 75.7561 15.586 76.1481 16.018C79.3161 19.61 81.6547 23.4846 83.164 27.642C84.6707 31.794 85.4241 36.0753 85.4241 40.486C85.4241 44.8966 84.6947 49.1793 83.2361 53.334C81.7774 57.4886 79.4214 61.362 76.168 64.954C75.76 65.3806 75.28 65.6446 74.728 65.746C74.176 65.8473 73.6894 65.6833 73.268 65.254C72.86 64.846 72.6814 64.3766 72.7321 63.846C72.7827 63.3153 73.0054 62.8353 73.4001 62.406C76.2107 59.1873 78.2974 55.698 79.66 51.938C81.0201 48.1753 81.7 44.358 81.7 40.486Z" fill="#3F87FE"/>
</svg>
