<svg width="97" height="97" viewBox="0 0 97 97" fill="none" xmlns="http://www.w3.org/2000/svg">
<path d="M37.5 45.486C37.5 49.0406 38.6613 52.194 40.984 54.946C43.3067 57.6953 45.812 60.2593 48.5 62.638C51.188 60.2593 53.6933 57.694 56.016 54.942C58.3387 52.1926 59.5 49.0406 59.5 45.486C59.5 42.4406 58.4293 39.846 56.288 37.702C54.1467 35.558 51.5547 34.486 48.512 34.486C45.4693 34.486 42.8733 35.558 40.724 37.702C38.5747 39.846 37.5 42.4406 37.5 45.486ZM48.5 48.486C47.3667 48.486 46.4173 48.102 45.652 47.334C44.8867 46.566 44.5027 45.6166 44.5 44.486C44.4973 43.3553 44.8813 42.406 45.652 41.638C46.4227 40.87 47.372 40.486 48.5 40.486C49.628 40.486 50.5787 40.87 51.352 41.638C52.1253 42.406 52.508 43.3553 52.5 44.486C52.492 45.6166 52.108 46.5673 51.348 47.338C50.588 48.1086 49.6387 48.4913 48.5 48.486ZM32.5 72.486C25.8147 72.486 20.144 70.1593 15.488 65.506C10.8293 60.85 8.5 55.182 8.5 48.502C8.5 41.822 10.8293 36.1486 15.488 31.482C20.1467 26.8153 25.8173 24.4833 32.5 24.486H64.5C71.1853 24.486 76.8573 26.8126 81.516 31.466C86.1747 36.1193 88.5027 41.7873 88.5 48.47C88.4973 55.1526 86.168 60.826 81.512 65.49C76.856 70.154 71.1853 72.486 64.5 72.486H32.5ZM32.5 68.486H64.5C70.0333 68.486 74.7507 66.5353 78.652 62.634C82.5533 58.7326 84.5027 54.0166 84.5 48.486C84.4973 42.9553 82.5467 38.2393 78.648 34.338C74.7493 30.4366 70.0333 28.486 64.5 28.486H32.5C26.9667 28.486 22.2507 30.4366 18.352 34.338C14.4533 38.2393 12.5027 42.9553 12.5 48.486C12.4973 54.0166 14.448 58.734 18.352 62.638C22.256 66.542 26.972 68.4913 32.5 68.486Z" fill="#3F87FE"/>
</svg>
