<svg width="52" height="52" viewBox="0 0 52 52" fill="none" xmlns="http://www.w3.org/2000/svg">
<path d="M26.0059 51.1024C39.8098 51.1024 51 39.9765 51 26.252C51 12.5275 39.8098 1.40161 26.0059 1.40161C12.202 1.40161 1.01172 12.5275 1.01172 26.252C1.01172 39.9765 12.202 51.1024 26.0059 51.1024Z" stroke="#B7B7B7"/>
<path d="M33.2902 21.6296C32.7546 21.8979 32.219 21.9873 31.5942 22.0767C32.219 21.719 32.6653 21.1825 32.8439 20.4672C32.3083 20.8248 31.6834 21.0037 30.9693 21.1825C30.4337 20.646 29.6303 20.2883 28.8269 20.2883C27.3094 20.2883 25.9705 21.6296 25.9705 23.2391C25.9705 23.5074 25.9705 23.6862 26.0597 23.8651C23.6496 23.7756 21.418 22.6132 19.9897 20.8248C19.7219 21.2719 19.6327 21.719 19.6327 22.3449C19.6327 23.3285 20.1683 24.2227 20.9716 24.7592C20.5253 24.7592 20.079 24.5804 19.6327 24.4016C19.6327 25.8322 20.6146 26.9947 21.9536 27.2629C21.6858 27.3524 21.418 27.3524 21.1502 27.3524C20.9716 27.3524 20.7931 27.3524 20.6146 27.2629C20.9716 28.4254 22.0428 29.3196 23.3818 29.3196C22.3999 30.1243 21.1502 30.5714 19.7219 30.5714C19.4541 30.5714 19.2756 30.5714 19.0078 30.5714C20.3468 31.3762 21.8643 31.9127 23.4711 31.9127C28.8269 31.9127 31.7727 27.4418 31.7727 23.5968C31.7727 23.5074 31.7727 23.3285 31.7727 23.2391C32.3975 22.792 32.9331 22.2555 33.2902 21.6296Z" fill="#1E2532"/>
</svg>
