<svg width="154" height="139" viewBox="0 0 154 139" fill="none" xmlns="http://www.w3.org/2000/svg">
<path d="M92.6667 71.1548C92.6667 74.8104 89.7032 77.7738 86.0476 77.7738C82.392 77.7738 79.4286 74.8104 79.4286 71.1548C79.4286 67.4992 82.392 64.5357 86.0476 64.5357C89.7032 64.5357 92.6667 67.4992 92.6667 71.1548Z" fill="#D9D9D9" fill-opacity="0.3"/>
<path d="M76.119 71.1548C76.119 74.8104 73.1556 77.7738 69.5 77.7738C65.8444 77.7738 62.881 74.8104 62.881 71.1548C62.881 67.4992 65.8444 64.5357 69.5 64.5357C73.1556 64.5357 76.119 67.4992 76.119 71.1548Z" fill="#D9D9D9" fill-opacity="0.3"/>
<path d="M110.869 71.1548C110.869 74.8104 107.906 77.7738 104.25 77.7738C100.594 77.7738 97.631 74.8104 97.631 71.1548C97.631 67.4992 100.594 64.5357 104.25 64.5357C107.906 64.5357 110.869 67.4992 110.869 71.1548Z" fill="#D9D9D9" fill-opacity="0.3"/>
<path d="M125.762 71.1548C125.762 73.8965 123.539 76.119 120.798 76.119C118.056 76.119 115.833 73.8965 115.833 71.1548C115.833 68.4131 118.056 66.1905 120.798 66.1905C123.539 66.1905 125.762 68.4131 125.762 71.1548Z" fill="#D9D9D9" fill-opacity="0.3"/>
<path d="M33.0952 71.1548C33.0952 73.8965 35.3178 76.119 38.0595 76.119C40.8012 76.119 43.0238 73.8965 43.0238 71.1548C43.0238 68.4131 40.8012 66.1905 38.0595 66.1905C35.3178 66.1905 33.0952 68.4131 33.0952 71.1548Z" fill="#D9D9D9" fill-opacity="0.3"/>
<path d="M142.31 71.1548C142.31 72.9826 140.828 74.4643 139 74.4643C137.172 74.4643 135.69 72.9826 135.69 71.1548C135.69 69.327 137.172 67.8452 139 67.8452C140.828 67.8452 142.31 69.327 142.31 71.1548Z" fill="#D9D9D9" fill-opacity="0.3"/>
<path d="M16.5476 71.1548C16.5476 72.9826 18.0293 74.4643 19.8571 74.4643C21.6849 74.4643 23.1667 72.9826 23.1667 71.1548C23.1667 69.327 21.6849 67.8452 19.8571 67.8452C18.0293 67.8452 16.5476 69.327 16.5476 71.1548Z" fill="#D9D9D9" fill-opacity="0.3"/>
<path d="M158.857 70.3274C158.857 71.6982 157.746 72.8095 156.375 72.8095C155.004 72.8095 153.893 71.6982 153.893 70.3274C153.893 68.9565 155.004 67.8452 156.375 67.8452C157.746 67.8452 158.857 68.9565 158.857 70.3274Z" fill="#D9D9D9" fill-opacity="0.3"/>
<path d="M0 70.3274C0 71.6982 1.11129 72.8095 2.48214 72.8095C3.85299 72.8095 4.96429 71.6982 4.96429 70.3274C4.96429 68.9565 3.85299 67.8452 2.48214 67.8452C1.11129 67.8452 0 68.9565 0 70.3274Z" fill="#D9D9D9" fill-opacity="0.3"/>
<path d="M57.9167 71.1548C57.9167 73.8965 55.6941 76.119 52.9524 76.119C50.2107 76.119 47.9881 73.8965 47.9881 71.1548C47.9881 68.4131 50.2107 66.1905 52.9524 66.1905C55.6941 66.1905 57.9167 68.4131 57.9167 71.1548Z" fill="#D9D9D9" fill-opacity="0.3"/>
<path d="M109.214 52.9524C109.214 55.6941 106.992 57.9167 104.25 57.9167C101.508 57.9167 99.2857 55.6941 99.2857 52.9524C99.2857 50.2107 101.508 47.9881 104.25 47.9881C106.992 47.9881 109.214 50.2107 109.214 52.9524Z" fill="#D9D9D9" fill-opacity="0.3"/>
<path d="M109.214 89.3571C109.214 92.0988 106.992 94.3214 104.25 94.3214C101.508 94.3214 99.2857 92.0988 99.2857 89.3571C99.2857 86.6154 101.508 84.3929 104.25 84.3929C106.992 84.3929 109.214 86.6154 109.214 89.3571Z" fill="#D9D9D9" fill-opacity="0.3"/>
<path d="M109.214 38.0595C109.214 40.8012 106.992 43.0238 104.25 43.0238C101.508 43.0238 99.2857 40.8012 99.2857 38.0595C99.2857 35.3178 101.508 33.0952 104.25 33.0952C106.992 33.0952 109.214 35.3178 109.214 38.0595Z" fill="#D9D9D9" fill-opacity="0.3"/>
<path d="M109.214 105.905C109.214 108.646 106.992 110.869 104.25 110.869C101.508 110.869 99.2857 108.646 99.2857 105.905C99.2857 103.163 101.508 100.94 104.25 100.94C106.992 100.94 109.214 103.163 109.214 105.905Z" fill="#D9D9D9" fill-opacity="0.3"/>
<path d="M92.6667 19.0298C92.6667 21.3145 90.8145 23.1667 88.5298 23.1667C86.245 23.1667 84.3929 21.3145 84.3929 19.0298C84.3929 16.745 86.245 14.8929 88.5298 14.8929C90.8145 14.8929 92.6667 16.745 92.6667 19.0298Z" fill="#D9D9D9" fill-opacity="0.3"/>
<path d="M92.6667 121.625C92.6667 123.91 90.8145 125.762 88.5298 125.762C86.245 125.762 84.3929 123.91 84.3929 121.625C84.3929 119.34 86.245 117.488 88.5298 117.488C90.8145 117.488 92.6667 119.34 92.6667 121.625Z" fill="#D9D9D9" fill-opacity="0.3"/>
<path d="M107.56 19.8571C107.56 21.6849 106.078 23.1667 104.25 23.1667C102.422 23.1667 100.94 21.6849 100.94 19.8571C100.94 18.0293 102.422 16.5476 104.25 16.5476C106.078 16.5476 107.56 18.0293 107.56 19.8571Z" fill="#D9D9D9" fill-opacity="0.3"/>
<path d="M107.56 122.452C107.56 124.28 106.078 125.762 104.25 125.762C102.422 125.762 100.94 124.28 100.94 122.452C100.94 120.625 102.422 119.143 104.25 119.143C106.078 119.143 107.56 120.625 107.56 122.452Z" fill="#D9D9D9" fill-opacity="0.3"/>
<path d="M72.8095 18.2024C72.8095 20.0302 71.3278 21.5119 69.5 21.5119C67.6722 21.5119 66.1905 20.0302 66.1905 18.2024C66.1905 16.3746 67.6722 14.8929 69.5 14.8929C71.3278 14.8929 72.8095 16.3746 72.8095 18.2024Z" fill="#D9D9D9" fill-opacity="0.3"/>
<path d="M72.8095 120.798C72.8095 122.625 71.3278 124.107 69.5 124.107C67.6722 124.107 66.1905 122.625 66.1905 120.798C66.1905 118.97 67.6722 117.488 69.5 117.488C71.3278 117.488 72.8095 118.97 72.8095 120.798Z" fill="#D9D9D9" fill-opacity="0.3"/>
<path d="M54.6071 19.0298C54.6071 20.4006 53.4958 21.5119 52.125 21.5119C50.7542 21.5119 49.6429 20.4006 49.6429 19.0298C49.6429 17.6589 50.7542 16.5476 52.125 16.5476C53.4958 16.5476 54.6071 17.6589 54.6071 19.0298Z" fill="#D9D9D9" fill-opacity="0.3"/>
<path d="M54.6071 121.625C54.6071 122.996 53.4958 124.107 52.125 124.107C50.7542 124.107 49.6429 122.996 49.6429 121.625C49.6429 120.254 50.7542 119.143 52.125 119.143C53.4958 119.143 54.6071 120.254 54.6071 121.625Z" fill="#D9D9D9" fill-opacity="0.3"/>
<path d="M124.107 19.0298C124.107 20.4006 122.996 21.5119 121.625 21.5119C120.254 21.5119 119.143 20.4006 119.143 19.0298C119.143 17.6589 120.254 16.5476 121.625 16.5476C122.996 16.5476 124.107 17.6589 124.107 19.0298Z" fill="#D9D9D9" fill-opacity="0.3"/>
<path d="M124.107 121.625C124.107 122.996 122.996 124.107 121.625 124.107C120.254 124.107 119.143 122.996 119.143 121.625C119.143 120.254 120.254 119.143 121.625 119.143C122.996 119.143 124.107 120.254 124.107 121.625Z" fill="#D9D9D9" fill-opacity="0.3"/>
<path d="M36.4048 19.8571C36.4048 20.771 35.6639 21.5119 34.75 21.5119C33.8361 21.5119 33.0952 20.771 33.0952 19.8571C33.0952 18.9432 33.8361 18.2024 34.75 18.2024C35.6639 18.2024 36.4048 18.9432 36.4048 19.8571Z" fill="#D9D9D9" fill-opacity="0.3"/>
<path d="M36.4048 122.452C36.4048 123.366 35.6639 124.107 34.75 124.107C33.8361 124.107 33.0952 123.366 33.0952 122.452C33.0952 121.538 33.8361 120.798 34.75 120.798C35.6639 120.798 36.4048 121.538 36.4048 122.452Z" fill="#D9D9D9" fill-opacity="0.3"/>
<path d="M139 19.8571C139 20.771 138.259 21.5119 137.345 21.5119C136.431 21.5119 135.69 20.771 135.69 19.8571C135.69 18.9432 136.431 18.2024 137.345 18.2024C138.259 18.2024 139 18.9432 139 19.8571Z" fill="#D9D9D9" fill-opacity="0.3"/>
<path d="M139 122.452C139 123.366 138.259 124.107 137.345 124.107C136.431 124.107 135.69 123.366 135.69 122.452C135.69 121.538 136.431 120.798 137.345 120.798C138.259 120.798 139 121.538 139 122.452Z" fill="#D9D9D9" fill-opacity="0.3"/>
<path d="M122.452 1.65476C122.452 2.56866 121.712 3.30952 120.798 3.30952C119.884 3.30952 119.143 2.56866 119.143 1.65476C119.143 0.740862 119.884 0 120.798 0C121.712 0 122.452 0.740862 122.452 1.65476Z" fill="#D9D9D9" fill-opacity="0.3"/>
<path d="M122.452 137.345C122.452 138.259 121.712 139 120.798 139C119.884 139 119.143 138.259 119.143 137.345C119.143 136.431 119.884 135.69 120.798 135.69C121.712 135.69 122.452 136.431 122.452 137.345Z" fill="#D9D9D9" fill-opacity="0.3"/>
<path d="M104.25 1.65476C104.25 2.56866 103.509 3.30952 102.595 3.30952C101.681 3.30952 100.94 2.56866 100.94 1.65476C100.94 0.740862 101.681 0 102.595 0C103.509 0 104.25 0.740862 104.25 1.65476Z" fill="#D9D9D9" fill-opacity="0.3"/>
<path d="M104.25 137.345C104.25 138.259 103.509 139 102.595 139C101.681 139 100.94 138.259 100.94 137.345C100.94 136.431 101.681 135.69 102.595 135.69C103.509 135.69 104.25 136.431 104.25 137.345Z" fill="#D9D9D9" fill-opacity="0.3"/>
<path d="M86.0476 1.65476C86.0476 2.56866 85.3068 3.30952 84.3929 3.30952C83.479 3.30952 82.7381 2.56866 82.7381 1.65476C82.7381 0.740862 83.479 0 84.3929 0C85.3068 0 86.0476 0.740862 86.0476 1.65476Z" fill="#D9D9D9" fill-opacity="0.3"/>
<path d="M86.0476 137.345C86.0476 138.259 85.3068 139 84.3929 139C83.479 139 82.7381 138.259 82.7381 137.345C82.7381 136.431 83.479 135.69 84.3929 135.69C85.3068 135.69 86.0476 136.431 86.0476 137.345Z" fill="#D9D9D9" fill-opacity="0.3"/>
<path d="M71.1548 1.65476C71.1548 2.56866 70.4139 3.30952 69.5 3.30952C68.5861 3.30952 67.8452 2.56866 67.8452 1.65476C67.8452 0.740862 68.5861 0 69.5 0C70.4139 0 71.1548 0.740862 71.1548 1.65476Z" fill="#D9D9D9" fill-opacity="0.3"/>
<path d="M71.1548 137.345C71.1548 138.259 70.4139 139 69.5 139C68.5861 139 67.8452 138.259 67.8452 137.345C67.8452 136.431 68.5861 135.69 69.5 135.69C70.4139 135.69 71.1548 136.431 71.1548 137.345Z" fill="#D9D9D9" fill-opacity="0.3"/>
<path d="M52.9524 1.65476C52.9524 2.56866 52.2115 3.30952 51.2976 3.30952C50.3837 3.30952 49.6429 2.56866 49.6429 1.65476C49.6429 0.740862 50.3837 0 51.2976 0C52.2115 0 52.9524 0.740862 52.9524 1.65476Z" fill="#D9D9D9" fill-opacity="0.3"/>
<path d="M52.9524 137.345C52.9524 138.259 52.2115 139 51.2976 139C50.3837 139 49.6429 138.259 49.6429 137.345C49.6429 136.431 50.3837 135.69 51.2976 135.69C52.2115 135.69 52.9524 136.431 52.9524 137.345Z" fill="#D9D9D9" fill-opacity="0.3"/>
<path d="M74.4643 36.4048C74.4643 39.1465 72.2417 41.369 69.5 41.369C66.7583 41.369 64.5357 39.1465 64.5357 36.4048C64.5357 33.6631 66.7583 31.4405 69.5 31.4405C72.2417 31.4405 74.4643 33.6631 74.4643 36.4048Z" fill="#D9D9D9" fill-opacity="0.3"/>
<path d="M74.4643 104.25C74.4643 106.992 72.2417 109.214 69.5 109.214C66.7583 109.214 64.5357 106.992 64.5357 104.25C64.5357 101.508 66.7583 99.2857 69.5 99.2857C72.2417 99.2857 74.4643 101.508 74.4643 104.25Z" fill="#D9D9D9" fill-opacity="0.3"/>
<path d="M124.107 52.125C124.107 54.4097 122.255 56.2619 119.97 56.2619C117.685 56.2619 115.833 54.4097 115.833 52.125C115.833 49.8403 117.685 47.9881 119.97 47.9881C122.255 47.9881 124.107 49.8403 124.107 52.125Z" fill="#D9D9D9" fill-opacity="0.3"/>
<path d="M124.107 88.5298C124.107 90.8145 122.255 92.6667 119.97 92.6667C117.685 92.6667 115.833 90.8145 115.833 88.5298C115.833 86.245 117.685 84.3929 119.97 84.3929C122.255 84.3929 124.107 86.245 124.107 88.5298Z" fill="#D9D9D9" fill-opacity="0.3"/>
<path d="M125.762 35.5774C125.762 37.8621 123.91 39.7143 121.625 39.7143C119.34 39.7143 117.488 37.8621 117.488 35.5774C117.488 33.2926 119.34 31.4405 121.625 31.4405C123.91 31.4405 125.762 33.2926 125.762 35.5774Z" fill="#D9D9D9" fill-opacity="0.3"/>
<path d="M125.762 103.423C125.762 105.707 123.91 107.56 121.625 107.56C119.34 107.56 117.488 105.707 117.488 103.423C117.488 101.138 119.34 99.2857 121.625 99.2857C123.91 99.2857 125.762 101.138 125.762 103.423Z" fill="#D9D9D9" fill-opacity="0.3"/>
<path d="M142.31 52.9524C142.31 54.7802 140.828 56.2619 139 56.2619C137.172 56.2619 135.69 54.7802 135.69 52.9524C135.69 51.1246 137.172 49.6429 139 49.6429C140.828 49.6429 142.31 51.1246 142.31 52.9524Z" fill="#D9D9D9" fill-opacity="0.3"/>
<path d="M142.31 89.3571C142.31 91.1849 140.828 92.6667 139 92.6667C137.172 92.6667 135.69 91.1849 135.69 89.3571C135.69 87.5293 137.172 86.0476 139 86.0476C140.828 86.0476 142.31 87.5293 142.31 89.3571Z" fill="#D9D9D9" fill-opacity="0.3"/>
<path d="M142.31 36.4048C142.31 38.2326 140.828 39.7143 139 39.7143C137.172 39.7143 135.69 38.2326 135.69 36.4048C135.69 34.577 137.172 33.0952 139 33.0952C140.828 33.0952 142.31 34.577 142.31 36.4048Z" fill="#D9D9D9" fill-opacity="0.3"/>
<path d="M142.31 104.25C142.31 106.078 140.828 107.56 139 107.56C137.172 107.56 135.69 106.078 135.69 104.25C135.69 102.422 137.172 100.94 139 100.94C140.828 100.94 142.31 102.422 142.31 104.25Z" fill="#D9D9D9" fill-opacity="0.3"/>
<path d="M157.202 52.125C157.202 53.4958 156.091 54.6071 154.72 54.6071C153.349 54.6071 152.238 53.4958 152.238 52.125C152.238 50.7542 153.349 49.6429 154.72 49.6429C156.091 49.6429 157.202 50.7542 157.202 52.125Z" fill="#D9D9D9" fill-opacity="0.3"/>
<path d="M157.202 88.5298C157.202 89.9006 156.091 91.0119 154.72 91.0119C153.349 91.0119 152.238 89.9006 152.238 88.5298C152.238 87.1589 153.349 86.0476 154.72 86.0476C156.091 86.0476 157.202 87.1589 157.202 88.5298Z" fill="#D9D9D9" fill-opacity="0.3"/>
<path d="M158.857 37.2321C158.857 38.603 157.746 39.7143 156.375 39.7143C155.004 39.7143 153.893 38.603 153.893 37.2321C153.893 35.8613 155.004 34.75 156.375 34.75C157.746 34.75 158.857 35.8613 158.857 37.2321Z" fill="#D9D9D9" fill-opacity="0.3"/>
<path d="M158.857 105.077C158.857 106.448 157.746 107.56 156.375 107.56C155.004 107.56 153.893 106.448 153.893 105.077C153.893 103.707 155.004 102.595 156.375 102.595C157.746 102.595 158.857 103.707 158.857 105.077Z" fill="#D9D9D9" fill-opacity="0.3"/>
<path d="M92.6667 53.7798C92.6667 56.9784 90.0736 59.5714 86.875 59.5714C83.6764 59.5714 81.0833 56.9784 81.0833 53.7798C81.0833 50.5811 83.6764 47.9881 86.875 47.9881C90.0736 47.9881 92.6667 50.5811 92.6667 53.7798Z" fill="#D9D9D9" fill-opacity="0.3"/>
<path d="M92.6667 90.1845C92.6667 93.3832 90.0736 95.9762 86.875 95.9762C83.6764 95.9762 81.0833 93.3832 81.0833 90.1845C81.0833 86.9859 83.6764 84.3929 86.875 84.3929C90.0736 84.3929 92.6667 86.9859 92.6667 90.1845Z" fill="#D9D9D9" fill-opacity="0.3"/>
<path d="M92.6667 37.2321C92.6667 40.4308 90.0736 43.0238 86.875 43.0238C83.6764 43.0238 81.0833 40.4308 81.0833 37.2321C81.0833 34.0335 83.6764 31.4405 86.875 31.4405C90.0736 31.4405 92.6667 34.0335 92.6667 37.2321Z" fill="#D9D9D9" fill-opacity="0.3"/>
<path d="M92.6667 105.077C92.6667 108.276 90.0736 110.869 86.875 110.869C83.6764 110.869 81.0833 108.276 81.0833 105.077C81.0833 101.879 83.6764 99.2857 86.875 99.2857C90.0736 99.2857 92.6667 101.879 92.6667 105.077Z" fill="#D9D9D9" fill-opacity="0.3"/>
<path d="M74.4643 52.9524C74.4643 55.6941 72.2417 57.9167 69.5 57.9167C66.7583 57.9167 64.5357 55.6941 64.5357 52.9524C64.5357 50.2107 66.7583 47.9881 69.5 47.9881C72.2417 47.9881 74.4643 50.2107 74.4643 52.9524Z" fill="#D9D9D9" fill-opacity="0.3"/>
<path d="M74.4643 89.3571C74.4643 92.0988 72.2417 94.3214 69.5 94.3214C66.7583 94.3214 64.5357 92.0988 64.5357 89.3571C64.5357 86.6154 66.7583 84.3929 69.5 84.3929C72.2417 84.3929 74.4643 86.6154 74.4643 89.3571Z" fill="#D9D9D9" fill-opacity="0.3"/>
<path d="M57.9167 53.7798C57.9167 56.0645 56.0645 57.9167 53.7798 57.9167C51.495 57.9167 49.6429 56.0645 49.6429 53.7798C49.6429 51.495 51.495 49.6429 53.7798 49.6429C56.0645 49.6429 57.9167 51.495 57.9167 53.7798Z" fill="#D9D9D9" fill-opacity="0.3"/>
<path d="M57.9167 90.1845C57.9167 92.4693 56.0645 94.3214 53.7798 94.3214C51.495 94.3214 49.6429 92.4693 49.6429 90.1845C49.6429 87.8998 51.495 86.0476 53.7798 86.0476C56.0645 86.0476 57.9167 87.8998 57.9167 90.1845Z" fill="#D9D9D9" fill-opacity="0.3"/>
<path d="M57.9167 37.2321C57.9167 39.5169 56.0645 41.369 53.7798 41.369C51.495 41.369 49.6429 39.5169 49.6429 37.2321C49.6429 34.9474 51.495 33.0952 53.7798 33.0952C56.0645 33.0952 57.9167 34.9474 57.9167 37.2321Z" fill="#D9D9D9" fill-opacity="0.3"/>
<path d="M57.9167 105.077C57.9167 107.362 56.0645 109.214 53.7798 109.214C51.495 109.214 49.6429 107.362 49.6429 105.077C49.6429 102.793 51.495 100.94 53.7798 100.94C56.0645 100.94 57.9167 102.793 57.9167 105.077Z" fill="#D9D9D9" fill-opacity="0.3"/>
<path d="M39.7143 54.6071C39.7143 56.4349 38.2326 57.9167 36.4048 57.9167C34.577 57.9167 33.0952 56.4349 33.0952 54.6071C33.0952 52.7793 34.577 51.2976 36.4048 51.2976C38.2326 51.2976 39.7143 52.7793 39.7143 54.6071Z" fill="#D9D9D9" fill-opacity="0.3"/>
<path d="M39.7143 91.0119C39.7143 92.8397 38.2326 94.3214 36.4048 94.3214C34.577 94.3214 33.0952 92.8397 33.0952 91.0119C33.0952 89.1841 34.577 87.7024 36.4048 87.7024C38.2326 87.7024 39.7143 89.1841 39.7143 91.0119Z" fill="#D9D9D9" fill-opacity="0.3"/>
<path d="M39.7143 36.4048C39.7143 38.2326 38.2326 39.7143 36.4048 39.7143C34.577 39.7143 33.0952 38.2326 33.0952 36.4048C33.0952 34.577 34.577 33.0952 36.4048 33.0952C38.2326 33.0952 39.7143 34.577 39.7143 36.4048Z" fill="#D9D9D9" fill-opacity="0.3"/>
<path d="M39.7143 104.25C39.7143 106.078 38.2326 107.56 36.4048 107.56C34.577 107.56 33.0952 106.078 33.0952 104.25C33.0952 102.422 34.577 100.94 36.4048 100.94C38.2326 100.94 39.7143 102.422 39.7143 104.25Z" fill="#D9D9D9" fill-opacity="0.3"/>
<path d="M21.5119 53.7798C21.5119 55.1506 20.4006 56.2619 19.0298 56.2619C17.6589 56.2619 16.5476 55.1506 16.5476 53.7798C16.5476 52.4089 17.6589 51.2976 19.0298 51.2976C20.4006 51.2976 21.5119 52.4089 21.5119 53.7798Z" fill="#D9D9D9" fill-opacity="0.3"/>
<path d="M21.5119 90.1845C21.5119 91.5554 20.4006 92.6667 19.0298 92.6667C17.6589 92.6667 16.5476 91.5554 16.5476 90.1845C16.5476 88.8137 17.6589 87.7024 19.0298 87.7024C20.4006 87.7024 21.5119 88.8137 21.5119 90.1845Z" fill="#D9D9D9" fill-opacity="0.3"/>
</svg>
