<svg width="346" height="207" viewBox="0 0 346 207" fill="none" xmlns="http://www.w3.org/2000/svg">
<path d="M201.833 154.979C201.833 162.941 195.379 169.396 187.417 169.396C179.455 169.396 173 162.941 173 154.979C173 147.017 179.455 140.562 187.417 140.562C195.379 140.562 201.833 147.017 201.833 154.979Z" fill="#B79E56" fill-opacity="0.17"/>
<path d="M165.792 154.979C165.792 162.941 159.337 169.396 151.375 169.396C143.413 169.396 136.958 162.941 136.958 154.979C136.958 147.017 143.413 140.562 151.375 140.562C159.337 140.562 165.792 147.017 165.792 154.979Z" fill="#B79E56" fill-opacity="0.17"/>
<path d="M241.479 154.979C241.479 162.941 235.025 169.396 227.062 169.396C219.1 169.396 212.646 162.941 212.646 154.979C212.646 147.017 219.1 140.562 227.062 140.562C235.025 140.562 241.479 147.017 241.479 154.979Z" fill="#B79E56" fill-opacity="0.17"/>
<path d="M273.917 154.979C273.917 160.951 269.076 165.792 263.104 165.792C257.133 165.792 252.292 160.951 252.292 154.979C252.292 149.008 257.133 144.167 263.104 144.167C269.076 144.167 273.917 149.008 273.917 154.979Z" fill="#B79E56" fill-opacity="0.17"/>
<path d="M72.0833 154.979C72.0833 160.951 76.9243 165.792 82.8958 165.792C88.8674 165.792 93.7083 160.951 93.7083 154.979C93.7083 149.008 88.8674 144.167 82.8958 144.167C76.9243 144.167 72.0833 149.008 72.0833 154.979Z" fill="#B79E56" fill-opacity="0.17"/>
<path d="M309.958 154.979C309.958 158.96 306.731 162.188 302.75 162.188C298.769 162.188 295.542 158.96 295.542 154.979C295.542 150.998 298.769 147.771 302.75 147.771C306.731 147.771 309.958 150.998 309.958 154.979Z" fill="#B79E56" fill-opacity="0.17"/>
<path d="M36.0417 154.979C36.0417 158.96 39.2689 162.188 43.25 162.188C47.2311 162.188 50.4583 158.96 50.4583 154.979C50.4583 150.998 47.2311 147.771 43.25 147.771C39.2689 147.771 36.0417 150.998 36.0417 154.979Z" fill="#B79E56" fill-opacity="0.17"/>
<path d="M346 153.177C346 156.163 343.58 158.583 340.594 158.583C337.608 158.583 335.188 156.163 335.188 153.177C335.188 150.191 337.608 147.771 340.594 147.771C343.58 147.771 346 150.191 346 153.177Z" fill="#B79E56" fill-opacity="0.17"/>
<path d="M0 153.177C0 156.163 2.42046 158.583 5.40625 158.583C8.39204 158.583 10.8125 156.163 10.8125 153.177C10.8125 150.191 8.39204 147.771 5.40625 147.771C2.42046 147.771 0 150.191 0 153.177Z" fill="#B79E56" fill-opacity="0.17"/>
<path d="M126.146 154.979C126.146 160.951 121.305 165.792 115.333 165.792C109.362 165.792 104.521 160.951 104.521 154.979C104.521 149.008 109.362 144.167 115.333 144.167C121.305 144.167 126.146 149.008 126.146 154.979Z" fill="#B79E56" fill-opacity="0.17"/>
<path d="M237.875 115.333C237.875 121.305 233.034 126.146 227.062 126.146C221.091 126.146 216.25 121.305 216.25 115.333C216.25 109.362 221.091 104.521 227.062 104.521C233.034 104.521 237.875 109.362 237.875 115.333Z" fill="#B79E56" fill-opacity="0.17"/>
<path d="M237.875 194.625C237.875 200.597 233.034 205.438 227.062 205.438C221.091 205.438 216.25 200.597 216.25 194.625C216.25 188.653 221.091 183.812 227.062 183.812C233.034 183.812 237.875 188.653 237.875 194.625Z" fill="#B79E56" fill-opacity="0.17"/>
<path d="M237.875 82.8958C237.875 88.8674 233.034 93.7083 227.062 93.7083C221.091 93.7083 216.25 88.8674 216.25 82.8958C216.25 76.9243 221.091 72.0833 227.062 72.0833C233.034 72.0833 237.875 76.9243 237.875 82.8958Z" fill="#B79E56" fill-opacity="0.17"/>
<path d="M237.875 230.667C237.875 236.638 233.034 241.479 227.062 241.479C221.091 241.479 216.25 236.638 216.25 230.667C216.25 224.695 221.091 219.854 227.062 219.854C233.034 219.854 237.875 224.695 237.875 230.667Z" fill="#B79E56" fill-opacity="0.17"/>
<path d="M201.833 41.4479C201.833 46.4242 197.799 50.4583 192.823 50.4583C187.847 50.4583 183.812 46.4242 183.812 41.4479C183.812 36.4716 187.847 32.4375 192.823 32.4375C197.799 32.4375 201.833 36.4716 201.833 41.4479Z" fill="#B79E56" fill-opacity="0.17"/>
<path d="M201.833 264.906C201.833 269.883 197.799 273.917 192.823 273.917C187.847 273.917 183.812 269.883 183.812 264.906C183.812 259.93 187.847 255.896 192.823 255.896C197.799 255.896 201.833 259.93 201.833 264.906Z" fill="#B79E56" fill-opacity="0.17"/>
<path d="M234.271 43.25C234.271 47.2311 231.044 50.4583 227.062 50.4583C223.081 50.4583 219.854 47.2311 219.854 43.25C219.854 39.2689 223.081 36.0417 227.062 36.0417C231.044 36.0417 234.271 39.2689 234.271 43.25Z" fill="#B79E56" fill-opacity="0.17"/>
<path d="M234.271 266.708C234.271 270.689 231.044 273.917 227.062 273.917C223.081 273.917 219.854 270.689 219.854 266.708C219.854 262.727 223.081 259.5 227.062 259.5C231.044 259.5 234.271 262.727 234.271 266.708Z" fill="#B79E56" fill-opacity="0.17"/>
<path d="M158.583 39.6458C158.583 43.6269 155.356 46.8542 151.375 46.8542C147.394 46.8542 144.167 43.6269 144.167 39.6458C144.167 35.6648 147.394 32.4375 151.375 32.4375C155.356 32.4375 158.583 35.6648 158.583 39.6458Z" fill="#B79E56" fill-opacity="0.17"/>
<path d="M158.583 263.104C158.583 267.085 155.356 270.312 151.375 270.312C147.394 270.312 144.167 267.085 144.167 263.104C144.167 259.123 147.394 255.896 151.375 255.896C155.356 255.896 158.583 259.123 158.583 263.104Z" fill="#B79E56" fill-opacity="0.17"/>
<path d="M118.938 41.4479C118.938 44.4337 116.517 46.8542 113.531 46.8542C110.545 46.8542 108.125 44.4337 108.125 41.4479C108.125 38.4621 110.545 36.0417 113.531 36.0417C116.517 36.0417 118.938 38.4621 118.938 41.4479Z" fill="#B79E56" fill-opacity="0.17"/>
<path d="M118.938 264.906C118.938 267.892 116.517 270.312 113.531 270.312C110.545 270.312 108.125 267.892 108.125 264.906C108.125 261.92 110.545 259.5 113.531 259.5C116.517 259.5 118.938 261.92 118.938 264.906Z" fill="#B79E56" fill-opacity="0.17"/>
<path d="M270.312 41.4479C270.312 44.4337 267.892 46.8542 264.906 46.8542C261.92 46.8542 259.5 44.4337 259.5 41.4479C259.5 38.4621 261.92 36.0417 264.906 36.0417C267.892 36.0417 270.312 38.4621 270.312 41.4479Z" fill="#B79E56" fill-opacity="0.17"/>
<path d="M270.312 264.906C270.312 267.892 267.892 270.312 264.906 270.312C261.92 270.312 259.5 267.892 259.5 264.906C259.5 261.92 261.92 259.5 264.906 259.5C267.892 259.5 270.312 261.92 270.312 264.906Z" fill="#B79E56" fill-opacity="0.17"/>
<path d="M79.2917 43.25C79.2917 45.2405 77.678 46.8542 75.6875 46.8542C73.697 46.8542 72.0833 45.2405 72.0833 43.25C72.0833 41.2595 73.697 39.6458 75.6875 39.6458C77.678 39.6458 79.2917 41.2595 79.2917 43.25Z" fill="#B79E56" fill-opacity="0.17"/>
<path d="M79.2917 266.708C79.2917 268.699 77.678 270.312 75.6875 270.312C73.697 270.312 72.0833 268.699 72.0833 266.708C72.0833 264.718 73.697 263.104 75.6875 263.104C77.678 263.104 79.2917 264.718 79.2917 266.708Z" fill="#B79E56" fill-opacity="0.17"/>
<path d="M302.75 43.25C302.75 45.2405 301.136 46.8542 299.146 46.8542C297.155 46.8542 295.542 45.2405 295.542 43.25C295.542 41.2595 297.155 39.6458 299.146 39.6458C301.136 39.6458 302.75 41.2595 302.75 43.25Z" fill="#B79E56" fill-opacity="0.17"/>
<path d="M302.75 266.708C302.75 268.699 301.136 270.312 299.146 270.312C297.155 270.312 295.542 268.699 295.542 266.708C295.542 264.718 297.155 263.104 299.146 263.104C301.136 263.104 302.75 264.718 302.75 266.708Z" fill="#B79E56" fill-opacity="0.17"/>
<path d="M266.708 3.60417C266.708 5.59469 265.095 7.20833 263.104 7.20833C261.114 7.20833 259.5 5.59469 259.5 3.60417C259.5 1.61364 261.114 0 263.104 0C265.095 0 266.708 1.61364 266.708 3.60417Z" fill="#B79E56" fill-opacity="0.17"/>
<path d="M266.708 299.146C266.708 301.136 265.095 302.75 263.104 302.75C261.114 302.75 259.5 301.136 259.5 299.146C259.5 297.155 261.114 295.542 263.104 295.542C265.095 295.542 266.708 297.155 266.708 299.146Z" fill="#B79E56" fill-opacity="0.17"/>
<path d="M227.062 3.60417C227.062 5.59469 225.449 7.20833 223.458 7.20833C221.468 7.20833 219.854 5.59469 219.854 3.60417C219.854 1.61364 221.468 0 223.458 0C225.449 0 227.062 1.61364 227.062 3.60417Z" fill="#B79E56" fill-opacity="0.17"/>
<path d="M227.062 299.146C227.062 301.136 225.449 302.75 223.458 302.75C221.468 302.75 219.854 301.136 219.854 299.146C219.854 297.155 221.468 295.542 223.458 295.542C225.449 295.542 227.062 297.155 227.062 299.146Z" fill="#B79E56" fill-opacity="0.17"/>
<path d="M187.417 3.60417C187.417 5.59469 185.803 7.20833 183.812 7.20833C181.822 7.20833 180.208 5.59469 180.208 3.60417C180.208 1.61364 181.822 0 183.812 0C185.803 0 187.417 1.61364 187.417 3.60417Z" fill="#B79E56" fill-opacity="0.17"/>
<path d="M187.417 299.146C187.417 301.136 185.803 302.75 183.812 302.75C181.822 302.75 180.208 301.136 180.208 299.146C180.208 297.155 181.822 295.542 183.812 295.542C185.803 295.542 187.417 297.155 187.417 299.146Z" fill="#B79E56" fill-opacity="0.17"/>
<path d="M154.979 3.60417C154.979 5.59469 153.366 7.20833 151.375 7.20833C149.384 7.20833 147.771 5.59469 147.771 3.60417C147.771 1.61364 149.384 0 151.375 0C153.366 0 154.979 1.61364 154.979 3.60417Z" fill="#B79E56" fill-opacity="0.17"/>
<path d="M154.979 299.146C154.979 301.136 153.366 302.75 151.375 302.75C149.384 302.75 147.771 301.136 147.771 299.146C147.771 297.155 149.384 295.542 151.375 295.542C153.366 295.542 154.979 297.155 154.979 299.146Z" fill="#B79E56" fill-opacity="0.17"/>
<path d="M115.333 3.60417C115.333 5.59469 113.72 7.20833 111.729 7.20833C109.739 7.20833 108.125 5.59469 108.125 3.60417C108.125 1.61364 109.739 0 111.729 0C113.72 0 115.333 1.61364 115.333 3.60417Z" fill="#B79E56" fill-opacity="0.17"/>
<path d="M115.333 299.146C115.333 301.136 113.72 302.75 111.729 302.75C109.739 302.75 108.125 301.136 108.125 299.146C108.125 297.155 109.739 295.542 111.729 295.542C113.72 295.542 115.333 297.155 115.333 299.146Z" fill="#B79E56" fill-opacity="0.17"/>
<path d="M162.188 79.2917C162.188 85.2632 157.347 90.1042 151.375 90.1042C145.403 90.1042 140.562 85.2632 140.562 79.2917C140.562 73.3201 145.403 68.4792 151.375 68.4792C157.347 68.4792 162.188 73.3201 162.188 79.2917Z" fill="#B79E56" fill-opacity="0.17"/>
<path d="M162.188 227.062C162.188 233.034 157.347 237.875 151.375 237.875C145.403 237.875 140.562 233.034 140.562 227.062C140.562 221.091 145.403 216.25 151.375 216.25C157.347 216.25 162.188 221.091 162.188 227.062Z" fill="#B79E56" fill-opacity="0.17"/>
<path d="M270.312 113.531C270.312 118.508 266.278 122.542 261.302 122.542C256.326 122.542 252.292 118.508 252.292 113.531C252.292 108.555 256.326 104.521 261.302 104.521C266.278 104.521 270.312 108.555 270.312 113.531Z" fill="#B79E56" fill-opacity="0.17"/>
<path d="M270.312 192.823C270.312 197.799 266.278 201.833 261.302 201.833C256.326 201.833 252.292 197.799 252.292 192.823C252.292 187.847 256.326 183.812 261.302 183.812C266.278 183.812 270.312 187.847 270.312 192.823Z" fill="#B79E56" fill-opacity="0.17"/>
<path d="M273.917 77.4896C273.917 82.4659 269.883 86.5 264.906 86.5C259.93 86.5 255.896 82.4659 255.896 77.4896C255.896 72.5133 259.93 68.4792 264.906 68.4792C269.883 68.4792 273.917 72.5133 273.917 77.4896Z" fill="#B79E56" fill-opacity="0.17"/>
<path d="M273.917 225.26C273.917 230.237 269.883 234.271 264.906 234.271C259.93 234.271 255.896 230.237 255.896 225.26C255.896 220.284 259.93 216.25 264.906 216.25C269.883 216.25 273.917 220.284 273.917 225.26Z" fill="#B79E56" fill-opacity="0.17"/>
<path d="M309.958 115.333C309.958 119.314 306.731 122.542 302.75 122.542C298.769 122.542 295.542 119.314 295.542 115.333C295.542 111.352 298.769 108.125 302.75 108.125C306.731 108.125 309.958 111.352 309.958 115.333Z" fill="#B79E56" fill-opacity="0.17"/>
<path d="M309.958 194.625C309.958 198.606 306.731 201.833 302.75 201.833C298.769 201.833 295.542 198.606 295.542 194.625C295.542 190.644 298.769 187.417 302.75 187.417C306.731 187.417 309.958 190.644 309.958 194.625Z" fill="#B79E56" fill-opacity="0.17"/>
<path d="M309.958 79.2917C309.958 83.2727 306.731 86.5 302.75 86.5C298.769 86.5 295.542 83.2727 295.542 79.2917C295.542 75.3106 298.769 72.0833 302.75 72.0833C306.731 72.0833 309.958 75.3106 309.958 79.2917Z" fill="#B79E56" fill-opacity="0.17"/>
<path d="M309.958 227.062C309.958 231.044 306.731 234.271 302.75 234.271C298.769 234.271 295.542 231.044 295.542 227.062C295.542 223.081 298.769 219.854 302.75 219.854C306.731 219.854 309.958 223.081 309.958 227.062Z" fill="#B79E56" fill-opacity="0.17"/>
<path d="M342.396 113.531C342.396 116.517 339.975 118.938 336.99 118.938C334.004 118.938 331.583 116.517 331.583 113.531C331.583 110.545 334.004 108.125 336.99 108.125C339.975 108.125 342.396 110.545 342.396 113.531Z" fill="#B79E56" fill-opacity="0.17"/>
<path d="M342.396 192.823C342.396 195.809 339.975 198.229 336.99 198.229C334.004 198.229 331.583 195.809 331.583 192.823C331.583 189.837 334.004 187.417 336.99 187.417C339.975 187.417 342.396 189.837 342.396 192.823Z" fill="#B79E56" fill-opacity="0.17"/>
<path d="M346 81.0938C346 84.0795 343.58 86.5 340.594 86.5C337.608 86.5 335.188 84.0795 335.188 81.0938C335.188 78.108 337.608 75.6875 340.594 75.6875C343.58 75.6875 346 78.108 346 81.0938Z" fill="#B79E56" fill-opacity="0.17"/>
<path d="M346 228.865C346 231.85 343.58 234.271 340.594 234.271C337.608 234.271 335.188 231.85 335.188 228.865C335.188 225.879 337.608 223.458 340.594 223.458C343.58 223.458 346 225.879 346 228.865Z" fill="#B79E56" fill-opacity="0.17"/>
<path d="M201.833 117.135C201.833 124.102 196.186 129.75 189.219 129.75C182.252 129.75 176.604 124.102 176.604 117.135C176.604 110.169 182.252 104.521 189.219 104.521C196.186 104.521 201.833 110.169 201.833 117.135Z" fill="#B79E56" fill-opacity="0.17"/>
<path d="M201.833 196.427C201.833 203.394 196.186 209.042 189.219 209.042C182.252 209.042 176.604 203.394 176.604 196.427C176.604 189.46 182.252 183.812 189.219 183.812C196.186 183.812 201.833 189.46 201.833 196.427Z" fill="#B79E56" fill-opacity="0.17"/>
<path d="M201.833 81.0938C201.833 88.0606 196.186 93.7083 189.219 93.7083C182.252 93.7083 176.604 88.0606 176.604 81.0938C176.604 74.1269 182.252 68.4792 189.219 68.4792C196.186 68.4792 201.833 74.1269 201.833 81.0938Z" fill="#B79E56" fill-opacity="0.17"/>
<path d="M201.833 228.865C201.833 235.831 196.186 241.479 189.219 241.479C182.252 241.479 176.604 235.831 176.604 228.865C176.604 221.898 182.252 216.25 189.219 216.25C196.186 216.25 201.833 221.898 201.833 228.865Z" fill="#B79E56" fill-opacity="0.17"/>
<path d="M162.188 115.333C162.188 121.305 157.347 126.146 151.375 126.146C145.403 126.146 140.562 121.305 140.562 115.333C140.562 109.362 145.403 104.521 151.375 104.521C157.347 104.521 162.188 109.362 162.188 115.333Z" fill="#B79E56" fill-opacity="0.17"/>
<path d="M162.188 194.625C162.188 200.597 157.347 205.438 151.375 205.438C145.403 205.438 140.562 200.597 140.562 194.625C140.562 188.653 145.403 183.812 151.375 183.812C157.347 183.812 162.188 188.653 162.188 194.625Z" fill="#B79E56" fill-opacity="0.17"/>
<path d="M126.146 117.135C126.146 122.112 122.112 126.146 117.135 126.146C112.159 126.146 108.125 122.112 108.125 117.135C108.125 112.159 112.159 108.125 117.135 108.125C122.112 108.125 126.146 112.159 126.146 117.135Z" fill="#B79E56" fill-opacity="0.17"/>
<path d="M126.146 196.427C126.146 201.403 122.112 205.438 117.135 205.438C112.159 205.438 108.125 201.403 108.125 196.427C108.125 191.451 112.159 187.417 117.135 187.417C122.112 187.417 126.146 191.451 126.146 196.427Z" fill="#B79E56" fill-opacity="0.17"/>
<path d="M126.146 81.0938C126.146 86.0701 122.112 90.1042 117.135 90.1042C112.159 90.1042 108.125 86.0701 108.125 81.0938C108.125 76.1174 112.159 72.0833 117.135 72.0833C122.112 72.0833 126.146 76.1174 126.146 81.0938Z" fill="#B79E56" fill-opacity="0.17"/>
<path d="M126.146 228.865C126.146 233.841 122.112 237.875 117.135 237.875C112.159 237.875 108.125 233.841 108.125 228.865C108.125 223.888 112.159 219.854 117.135 219.854C122.112 219.854 126.146 223.888 126.146 228.865Z" fill="#B79E56" fill-opacity="0.17"/>
<path d="M86.5 118.938C86.5 122.919 83.2727 126.146 79.2917 126.146C75.3106 126.146 72.0833 122.919 72.0833 118.938C72.0833 114.956 75.3106 111.729 79.2917 111.729C83.2727 111.729 86.5 114.956 86.5 118.938Z" fill="#B79E56" fill-opacity="0.17"/>
<path d="M86.5 198.229C86.5 202.21 83.2727 205.438 79.2917 205.438C75.3106 205.438 72.0833 202.21 72.0833 198.229C72.0833 194.248 75.3106 191.021 79.2917 191.021C83.2727 191.021 86.5 194.248 86.5 198.229Z" fill="#B79E56" fill-opacity="0.17"/>
<path d="M86.5 79.2917C86.5 83.2727 83.2727 86.5 79.2917 86.5C75.3106 86.5 72.0833 83.2727 72.0833 79.2917C72.0833 75.3106 75.3106 72.0833 79.2917 72.0833C83.2727 72.0833 86.5 75.3106 86.5 79.2917Z" fill="#B79E56" fill-opacity="0.17"/>
<path d="M86.5 227.062C86.5 231.044 83.2727 234.271 79.2917 234.271C75.3106 234.271 72.0833 231.044 72.0833 227.062C72.0833 223.081 75.3106 219.854 79.2917 219.854C83.2727 219.854 86.5 223.081 86.5 227.062Z" fill="#B79E56" fill-opacity="0.17"/>
<path d="M46.8542 117.135C46.8542 120.121 44.4337 122.542 41.4479 122.542C38.4621 122.542 36.0417 120.121 36.0417 117.135C36.0417 114.15 38.4621 111.729 41.4479 111.729C44.4337 111.729 46.8542 114.15 46.8542 117.135Z" fill="#B79E56" fill-opacity="0.17"/>
<path d="M46.8542 196.427C46.8542 199.413 44.4337 201.833 41.4479 201.833C38.4621 201.833 36.0417 199.413 36.0417 196.427C36.0417 193.441 38.4621 191.021 41.4479 191.021C44.4337 191.021 46.8542 193.441 46.8542 196.427Z" fill="#B79E56" fill-opacity="0.17"/>
</svg>
