<svg width="24" height="20" viewBox="0 0 24 20" fill="none" xmlns="http://www.w3.org/2000/svg">
<path fill-rule="evenodd" clip-rule="evenodd" d="M12 0.399902C13.026 0.399902 14.0784 0.426302 15.0984 0.469502L16.3032 0.527102L17.4564 0.595502L18.5364 0.668702L19.5228 0.745502C20.5933 0.827436 21.6005 1.28424 22.3674 2.03555C23.1343 2.78686 23.6117 3.78455 23.7156 4.8531L23.7636 5.3631L23.8536 6.4551C23.9376 7.5867 24 8.8203 24 9.9999C24 11.1795 23.9376 12.4131 23.8536 13.5447L23.7636 14.6367C23.748 14.8119 23.7324 14.9811 23.7156 15.1467C23.6117 16.2154 23.1341 17.2133 22.367 17.9646C21.5998 18.716 20.5923 19.1726 19.5216 19.2543L18.5376 19.3299L17.4576 19.4043L16.3032 19.4727L15.0984 19.5303C14.0662 19.5752 13.0332 19.5984 12 19.5999C10.9668 19.5984 9.9338 19.5752 8.9016 19.5303L7.6968 19.4727L6.5436 19.4043L5.4636 19.3299L4.4772 19.2543C3.40674 19.1724 2.39946 18.7156 1.63257 17.9643C0.865672 17.2129 0.388289 16.2153 0.2844 15.1467L0.2364 14.6367L0.1464 13.5447C0.0546451 12.3653 0.00581282 11.1829 0 9.9999C0 8.8203 0.0624 7.5867 0.1464 6.4551L0.2364 5.3631C0.252 5.1879 0.2676 5.0187 0.2844 4.8531C0.388249 3.78474 0.86546 2.7872 1.63211 2.03591C2.39876 1.28463 3.40575 0.827705 4.476 0.745502L5.4612 0.668702L6.5412 0.595502L7.6956 0.527102L8.9004 0.469502C9.933 0.424662 10.9664 0.401457 12 0.399902ZM9.6 7.0899V12.9099C9.6 13.4643 10.2 13.8099 10.68 13.5339L15.72 10.6239C15.8297 10.5608 15.9208 10.4699 15.9841 10.3603C16.0475 10.2508 16.0808 10.1264 16.0808 9.9999C16.0808 9.87336 16.0475 9.74905 15.9841 9.6395C15.9208 9.52995 15.8297 9.43903 15.72 9.3759L10.68 6.4671C10.5705 6.40389 10.4463 6.37062 10.3199 6.37064C10.1935 6.37066 10.0693 6.40397 9.9598 6.46722C9.85033 6.53047 9.75945 6.62142 9.69629 6.73094C9.63313 6.84046 9.59992 6.96468 9.6 7.0911V7.0899Z" fill="white" fill-opacity="0.8"/>
</svg>
