<svg width="24" height="24" viewBox="0 0 24 24" fill="none" xmlns="http://www.w3.org/2000/svg">
<path d="M13.2336 0.000244141C14.5835 0.00384396 15.2687 0.0110436 15.8603 0.0278427L16.0931 0.0362423C16.3619 0.0458418 16.627 0.0578411 16.9474 0.0722404C18.2242 0.132237 19.0953 0.333827 19.8597 0.630212C20.6516 0.934996 21.3188 1.34778 21.986 2.01374C22.5961 2.61359 23.0683 3.33918 23.3695 4.14003C23.6659 4.90439 23.8675 5.77555 23.9275 7.05348C23.9419 7.37267 23.9539 7.63785 23.9635 7.90784L23.9707 8.14063C23.9887 8.731 23.9959 9.41616 23.9983 10.7661L23.9995 11.6612V13.2332C24.0024 14.1084 23.9932 14.9836 23.9719 15.8586L23.9647 16.0914C23.9551 16.3614 23.9431 16.6266 23.9287 16.9458C23.8687 18.2237 23.6647 19.0937 23.3695 19.8592C23.0691 20.6605 22.5969 21.3863 21.986 21.9855C21.386 22.5955 20.6604 23.0676 19.8597 23.369C19.0953 23.6654 18.2242 23.867 16.9474 23.927C16.6627 23.9404 16.3779 23.9524 16.0931 23.963L15.8603 23.9702C15.2687 23.987 14.5835 23.9954 13.2336 23.9978L12.3385 23.999H10.7677C9.8921 24.002 9.01646 23.9928 8.14108 23.9714L7.90829 23.9642C7.62343 23.9534 7.33864 23.941 7.05393 23.927C5.7772 23.867 4.90604 23.6654 4.14048 23.369C3.33972 23.0683 2.61442 22.5961 2.01539 21.9855C1.40467 21.3859 0.932114 20.6603 0.63066 19.8592C0.334275 19.0949 0.132686 18.2237 0.0726886 16.9458C0.0593199 16.661 0.0473204 16.3763 0.0366905 16.0914L0.0306909 15.8586C0.00857853 14.9837 -0.00142203 14.1084 0.000692365 13.2332V10.7661C-0.00265662 9.89086 0.00614386 9.01562 0.0270911 8.14063L0.0354906 7.90784C0.0450901 7.63785 0.0570895 7.37267 0.0714888 7.05348C0.131486 5.77555 0.333075 4.90559 0.62946 4.14003C0.930781 3.33836 1.40428 2.61254 2.01659 2.01374C2.61547 1.40354 3.34029 0.931381 4.14048 0.630212C4.90604 0.333827 5.776 0.132237 7.05393 0.0722404C7.37311 0.0578411 7.6395 0.0458418 7.90829 0.0362423L8.14108 0.0290426C9.01606 0.00772301 9.8913 -0.00147741 10.7665 0.00144399L13.2336 0.000244141ZM12.0001 5.99994C10.4089 5.99994 8.88282 6.63205 7.75765 7.75721C6.63249 8.88237 6.00038 10.4084 6.00038 11.9996C6.00038 13.5908 6.63249 15.1169 7.75765 16.2421C8.88282 17.3672 10.4089 17.9993 12.0001 17.9993C13.5913 17.9993 15.1173 17.3672 16.2425 16.2421C17.3677 15.1169 17.9998 13.5908 17.9998 11.9996C17.9998 10.4084 17.3677 8.88237 16.2425 7.75721C15.1173 6.63205 13.5913 5.99994 12.0001 5.99994ZM12.0001 8.39981C12.4728 8.39974 12.9409 8.49277 13.3777 8.6736C13.8145 8.85444 14.2114 9.11953 14.5457 9.45375C14.88 9.78797 15.1453 10.1848 15.3262 10.6215C15.5072 11.0582 15.6004 11.5263 15.6005 11.999C15.6006 12.4718 15.5075 12.9399 15.3267 13.3767C15.1459 13.8134 14.8808 14.2103 14.5466 14.5447C14.2123 14.879 13.8155 15.1442 13.3788 15.3252C12.9421 15.5062 12.474 15.5994 12.0013 15.5994C11.0465 15.5994 10.1309 15.2202 9.45582 14.5451C8.78073 13.87 8.40146 12.9544 8.40146 11.9996C8.40146 11.0449 8.78073 10.1293 9.45582 9.45417C10.1309 8.77908 11.0465 8.39981 12.0013 8.39981M18.301 4.20003C17.9032 4.20003 17.5216 4.35806 17.2403 4.63935C16.9591 4.92064 16.801 5.30215 16.801 5.69995C16.801 6.09776 16.9591 6.47927 17.2403 6.76056C17.5216 7.04185 17.9032 7.19988 18.301 7.19988C18.6988 7.19988 19.0803 7.04185 19.3616 6.76056C19.6429 6.47927 19.8009 6.09776 19.8009 5.69995C19.8009 5.30215 19.6429 4.92064 19.3616 4.63935C19.0803 4.35806 18.6988 4.20003 18.301 4.20003Z" fill="white" fill-opacity="0.8"/>
</svg>
