<svg width="133" height="134" viewBox="0 0 133 134" fill="none" xmlns="http://www.w3.org/2000/svg">
<path d="M21.75 19.5938C21.75 25.7379 16.7692 30.7188 10.625 30.7188C4.48083 30.7188 -0.5 25.7379 -0.5 19.5938C-0.5 13.4496 4.48083 8.46875 10.625 8.46875C16.7692 8.46875 21.75 13.4496 21.75 19.5938Z" fill="#B79E56" fill-opacity="0.17"/>
<path d="M-6.0625 19.5938C-6.0625 25.7379 -11.0433 30.7188 -17.1875 30.7188C-23.3317 30.7188 -28.3125 25.7379 -28.3125 19.5938C-28.3125 13.4496 -23.3317 8.46875 -17.1875 8.46875C-11.0433 8.46875 -6.0625 13.4496 -6.0625 19.5938Z" fill="#B79E56" fill-opacity="0.17"/>
<path d="M52.3438 19.5938C52.3438 25.7379 47.3629 30.7188 41.2188 30.7188C35.0746 30.7188 30.0938 25.7379 30.0938 19.5938C30.0938 13.4496 35.0746 8.46875 41.2188 8.46875C47.3629 8.46875 52.3438 13.4496 52.3438 19.5938Z" fill="#B79E56" fill-opacity="0.17"/>
<path d="M77.375 19.5938C77.375 24.2019 73.6394 27.9375 69.0312 27.9375C64.4231 27.9375 60.6875 24.2019 60.6875 19.5938C60.6875 14.9856 64.4231 11.25 69.0312 11.25C73.6394 11.25 77.375 14.9856 77.375 19.5938Z" fill="#B79E56" fill-opacity="0.17"/>
<path d="M-78.375 19.5938C-78.375 24.2019 -74.6394 27.9375 -70.0312 27.9375C-65.4231 27.9375 -61.6875 24.2019 -61.6875 19.5938C-61.6875 14.9856 -65.4231 11.25 -70.0312 11.25C-74.6394 11.25 -78.375 14.9856 -78.375 19.5938Z" fill="#B79E56" fill-opacity="0.17"/>
<path d="M105.188 19.5938C105.188 22.6658 102.697 25.1562 99.625 25.1562C96.5529 25.1562 94.0625 22.6658 94.0625 19.5938C94.0625 16.5217 96.5529 14.0312 99.625 14.0312C102.697 14.0312 105.188 16.5217 105.188 19.5938Z" fill="#B79E56" fill-opacity="0.17"/>
<path d="M-106.188 19.5938C-106.188 22.6658 -103.697 25.1562 -100.625 25.1562C-97.5529 25.1562 -95.0625 22.6658 -95.0625 19.5938C-95.0625 16.5217 -97.5529 14.0312 -100.625 14.0312C-103.697 14.0312 -106.188 16.5217 -106.188 19.5938Z" fill="#B79E56" fill-opacity="0.17"/>
<path d="M133 18.2031C133 20.5072 131.132 22.375 128.828 22.375C126.524 22.375 124.656 20.5072 124.656 18.2031C124.656 15.8991 126.524 14.0312 128.828 14.0312C131.132 14.0312 133 15.8991 133 18.2031Z" fill="#B79E56" fill-opacity="0.17"/>
<path d="M-134 18.2031C-134 20.5072 -132.132 22.375 -129.828 22.375C-127.524 22.375 -125.656 20.5072 -125.656 18.2031C-125.656 15.8991 -127.524 14.0312 -129.828 14.0312C-132.132 14.0312 -134 15.8991 -134 18.2031Z" fill="#B79E56" fill-opacity="0.17"/>
<path d="M-36.6562 19.5938C-36.6562 24.2019 -40.3919 27.9375 -45 27.9375C-49.6081 27.9375 -53.3438 24.2019 -53.3438 19.5938C-53.3438 14.9856 -49.6081 11.25 -45 11.25C-40.3919 11.25 -36.6562 14.9856 -36.6562 19.5938Z" fill="#B79E56" fill-opacity="0.17"/>
<path d="M49.5625 -11C49.5625 -6.39188 45.8269 -2.65625 41.2188 -2.65625C36.6106 -2.65625 32.875 -6.39188 32.875 -11C32.875 -15.6081 36.6106 -19.3438 41.2188 -19.3438C45.8269 -19.3438 49.5625 -15.6081 49.5625 -11Z" fill="#B79E56" fill-opacity="0.17"/>
<path d="M49.5625 50.1875C49.5625 54.7956 45.8269 58.5312 41.2188 58.5312C36.6106 58.5312 32.875 54.7956 32.875 50.1875C32.875 45.5794 36.6106 41.8438 41.2188 41.8438C45.8269 41.8438 49.5625 45.5794 49.5625 50.1875Z" fill="#B79E56" fill-opacity="0.17"/>
<path d="M49.5625 -36.0312C49.5625 -31.4231 45.8269 -27.6875 41.2188 -27.6875C36.6106 -27.6875 32.875 -31.4231 32.875 -36.0312C32.875 -40.6394 36.6106 -44.375 41.2188 -44.375C45.8269 -44.375 49.5625 -40.6394 49.5625 -36.0312Z" fill="#B79E56" fill-opacity="0.17"/>
<path d="M49.5625 78C49.5625 82.6081 45.8269 86.3438 41.2188 86.3438C36.6106 86.3438 32.875 82.6081 32.875 78C32.875 73.3919 36.6106 69.6562 41.2188 69.6562C45.8269 69.6562 49.5625 73.3919 49.5625 78Z" fill="#B79E56" fill-opacity="0.17"/>
<path d="M21.75 -68.0156C21.75 -64.1755 18.637 -61.0625 14.7969 -61.0625C10.9568 -61.0625 7.84375 -64.1755 7.84375 -68.0156C7.84375 -71.8557 10.9568 -74.9688 14.7969 -74.9688C18.637 -74.9688 21.75 -71.8557 21.75 -68.0156Z" fill="#B79E56" fill-opacity="0.17"/>
<path d="M21.75 104.422C21.75 108.262 18.637 111.375 14.7969 111.375C10.9568 111.375 7.84375 108.262 7.84375 104.422C7.84375 100.582 10.9568 97.4688 14.7969 97.4688C18.637 97.4688 21.75 100.582 21.75 104.422Z" fill="#B79E56" fill-opacity="0.17"/>
<path d="M46.7812 -66.625C46.7812 -63.5529 44.2908 -61.0625 41.2188 -61.0625C38.1467 -61.0625 35.6562 -63.5529 35.6562 -66.625C35.6562 -69.6971 38.1467 -72.1875 41.2188 -72.1875C44.2908 -72.1875 46.7812 -69.6971 46.7812 -66.625Z" fill="#B79E56" fill-opacity="0.17"/>
<path d="M46.7812 105.812C46.7812 108.885 44.2908 111.375 41.2188 111.375C38.1467 111.375 35.6562 108.885 35.6562 105.812C35.6562 102.74 38.1467 100.25 41.2188 100.25C44.2908 100.25 46.7812 102.74 46.7812 105.812Z" fill="#B79E56" fill-opacity="0.17"/>
<path d="M-11.625 -69.4062C-11.625 -66.3342 -14.1154 -63.8438 -17.1875 -63.8438C-20.2596 -63.8438 -22.75 -66.3342 -22.75 -69.4062C-22.75 -72.4783 -20.2596 -74.9688 -17.1875 -74.9688C-14.1154 -74.9688 -11.625 -72.4783 -11.625 -69.4062Z" fill="#B79E56" fill-opacity="0.17"/>
<path d="M-11.625 103.031C-11.625 106.103 -14.1154 108.594 -17.1875 108.594C-20.2596 108.594 -22.75 106.103 -22.75 103.031C-22.75 99.9592 -20.2596 97.4688 -17.1875 97.4688C-14.1154 97.4688 -11.625 99.9592 -11.625 103.031Z" fill="#B79E56" fill-opacity="0.17"/>
<path d="M-42.2188 -68.0156C-42.2188 -65.7116 -44.0866 -63.8438 -46.3906 -63.8438C-48.6947 -63.8438 -50.5625 -65.7116 -50.5625 -68.0156C-50.5625 -70.3197 -48.6947 -72.1875 -46.3906 -72.1875C-44.0866 -72.1875 -42.2188 -70.3197 -42.2188 -68.0156Z" fill="#B79E56" fill-opacity="0.17"/>
<path d="M-42.2188 104.422C-42.2188 106.726 -44.0866 108.594 -46.3906 108.594C-48.6947 108.594 -50.5625 106.726 -50.5625 104.422C-50.5625 102.118 -48.6947 100.25 -46.3906 100.25C-44.0866 100.25 -42.2188 102.118 -42.2188 104.422Z" fill="#B79E56" fill-opacity="0.17"/>
<path d="M74.5938 -68.0156C74.5938 -65.7116 72.7259 -63.8438 70.4219 -63.8438C68.1178 -63.8438 66.25 -65.7116 66.25 -68.0156C66.25 -70.3197 68.1178 -72.1875 70.4219 -72.1875C72.7259 -72.1875 74.5938 -70.3197 74.5938 -68.0156Z" fill="#B79E56" fill-opacity="0.17"/>
<path d="M74.5938 104.422C74.5938 106.726 72.7259 108.594 70.4219 108.594C68.1178 108.594 66.25 106.726 66.25 104.422C66.25 102.118 68.1178 100.25 70.4219 100.25C72.7259 100.25 74.5938 102.118 74.5938 104.422Z" fill="#B79E56" fill-opacity="0.17"/>
<path d="M-72.8125 -66.625C-72.8125 -65.089 -74.0577 -63.8438 -75.5938 -63.8438C-77.1298 -63.8438 -78.375 -65.089 -78.375 -66.625C-78.375 -68.161 -77.1298 -69.4062 -75.5938 -69.4062C-74.0577 -69.4062 -72.8125 -68.161 -72.8125 -66.625Z" fill="#B79E56" fill-opacity="0.17"/>
<path d="M-72.8125 105.812C-72.8125 107.349 -74.0577 108.594 -75.5938 108.594C-77.1298 108.594 -78.375 107.349 -78.375 105.812C-78.375 104.276 -77.1298 103.031 -75.5938 103.031C-74.0577 103.031 -72.8125 104.276 -72.8125 105.812Z" fill="#B79E56" fill-opacity="0.17"/>
<path d="M99.625 -66.625C99.625 -65.089 98.3798 -63.8438 96.8438 -63.8438C95.3077 -63.8438 94.0625 -65.089 94.0625 -66.625C94.0625 -68.161 95.3077 -69.4062 96.8438 -69.4062C98.3798 -69.4062 99.625 -68.161 99.625 -66.625Z" fill="#B79E56" fill-opacity="0.17"/>
<path d="M99.625 105.812C99.625 107.349 98.3798 108.594 96.8438 108.594C95.3077 108.594 94.0625 107.349 94.0625 105.812C94.0625 104.276 95.3077 103.031 96.8438 103.031C98.3798 103.031 99.625 104.276 99.625 105.812Z" fill="#B79E56" fill-opacity="0.17"/>
<path d="M71.8125 -97.2188C71.8125 -95.6827 70.5673 -94.4375 69.0312 -94.4375C67.4952 -94.4375 66.25 -95.6827 66.25 -97.2188C66.25 -98.7548 67.4952 -100 69.0312 -100C70.5673 -100 71.8125 -98.7548 71.8125 -97.2188Z" fill="#B79E56" fill-opacity="0.17"/>
<path d="M71.8125 130.844C71.8125 132.38 70.5673 133.625 69.0312 133.625C67.4952 133.625 66.25 132.38 66.25 130.844C66.25 129.308 67.4952 128.062 69.0312 128.062C70.5673 128.062 71.8125 129.308 71.8125 130.844Z" fill="#B79E56" fill-opacity="0.17"/>
<path d="M41.2188 -97.2188C41.2188 -95.6827 39.9735 -94.4375 38.4375 -94.4375C36.9015 -94.4375 35.6562 -95.6827 35.6562 -97.2188C35.6562 -98.7548 36.9015 -100 38.4375 -100C39.9735 -100 41.2188 -98.7548 41.2188 -97.2188Z" fill="#B79E56" fill-opacity="0.17"/>
<path d="M41.2188 130.844C41.2188 132.38 39.9735 133.625 38.4375 133.625C36.9015 133.625 35.6562 132.38 35.6562 130.844C35.6562 129.308 36.9015 128.062 38.4375 128.062C39.9735 128.062 41.2188 129.308 41.2188 130.844Z" fill="#B79E56" fill-opacity="0.17"/>
<path d="M10.625 -97.2188C10.625 -95.6827 9.37979 -94.4375 7.84375 -94.4375C6.30771 -94.4375 5.0625 -95.6827 5.0625 -97.2188C5.0625 -98.7548 6.30771 -100 7.84375 -100C9.37979 -100 10.625 -98.7548 10.625 -97.2188Z" fill="#B79E56" fill-opacity="0.17"/>
<path d="M10.625 130.844C10.625 132.38 9.37979 133.625 7.84375 133.625C6.30771 133.625 5.0625 132.38 5.0625 130.844C5.0625 129.308 6.30771 128.062 7.84375 128.062C9.37979 128.062 10.625 129.308 10.625 130.844Z" fill="#B79E56" fill-opacity="0.17"/>
<path d="M-14.4062 -97.2188C-14.4062 -95.6827 -15.6515 -94.4375 -17.1875 -94.4375C-18.7235 -94.4375 -19.9688 -95.6827 -19.9688 -97.2188C-19.9688 -98.7548 -18.7235 -100 -17.1875 -100C-15.6515 -100 -14.4062 -98.7548 -14.4062 -97.2188Z" fill="#B79E56" fill-opacity="0.17"/>
<path d="M-14.4062 130.844C-14.4062 132.38 -15.6515 133.625 -17.1875 133.625C-18.7235 133.625 -19.9688 132.38 -19.9688 130.844C-19.9688 129.308 -18.7235 128.062 -17.1875 128.062C-15.6515 128.062 -14.4062 129.308 -14.4062 130.844Z" fill="#B79E56" fill-opacity="0.17"/>
<path d="M-45 -97.2188C-45 -95.6827 -46.2452 -94.4375 -47.7812 -94.4375C-49.3173 -94.4375 -50.5625 -95.6827 -50.5625 -97.2188C-50.5625 -98.7548 -49.3173 -100 -47.7812 -100C-46.2452 -100 -45 -98.7548 -45 -97.2188Z" fill="#B79E56" fill-opacity="0.17"/>
<path d="M-45 130.844C-45 132.38 -46.2452 133.625 -47.7812 133.625C-49.3173 133.625 -50.5625 132.38 -50.5625 130.844C-50.5625 129.308 -49.3173 128.062 -47.7812 128.062C-46.2452 128.062 -45 129.308 -45 130.844Z" fill="#B79E56" fill-opacity="0.17"/>
<path d="M-8.84375 -38.8125C-8.84375 -34.2044 -12.5794 -30.4688 -17.1875 -30.4688C-21.7956 -30.4688 -25.5312 -34.2044 -25.5312 -38.8125C-25.5312 -43.4206 -21.7956 -47.1562 -17.1875 -47.1562C-12.5794 -47.1562 -8.84375 -43.4206 -8.84375 -38.8125Z" fill="#B79E56" fill-opacity="0.17"/>
<path d="M-8.84375 75.2188C-8.84375 79.8269 -12.5794 83.5625 -17.1875 83.5625C-21.7956 83.5625 -25.5312 79.8269 -25.5312 75.2188C-25.5312 70.6106 -21.7956 66.875 -17.1875 66.875C-12.5794 66.875 -8.84375 70.6106 -8.84375 75.2188Z" fill="#B79E56" fill-opacity="0.17"/>
<path d="M74.5938 -12.3906C74.5938 -8.55052 71.4807 -5.4375 67.6406 -5.4375C63.8005 -5.4375 60.6875 -8.55052 60.6875 -12.3906C60.6875 -16.2307 63.8005 -19.3438 67.6406 -19.3438C71.4807 -19.3438 74.5938 -16.2307 74.5938 -12.3906Z" fill="#B79E56" fill-opacity="0.17"/>
<path d="M74.5938 48.7969C74.5938 52.637 71.4807 55.75 67.6406 55.75C63.8005 55.75 60.6875 52.637 60.6875 48.7969C60.6875 44.9568 63.8005 41.8438 67.6406 41.8438C71.4807 41.8438 74.5938 44.9568 74.5938 48.7969Z" fill="#B79E56" fill-opacity="0.17"/>
<path d="M77.375 -40.2031C77.375 -36.363 74.262 -33.25 70.4219 -33.25C66.5818 -33.25 63.4688 -36.363 63.4688 -40.2031C63.4688 -44.0432 66.5818 -47.1562 70.4219 -47.1562C74.262 -47.1562 77.375 -44.0432 77.375 -40.2031Z" fill="#B79E56" fill-opacity="0.17"/>
<path d="M77.375 73.8281C77.375 77.6682 74.262 80.7812 70.4219 80.7812C66.5818 80.7812 63.4688 77.6682 63.4688 73.8281C63.4688 69.988 66.5818 66.875 70.4219 66.875C74.262 66.875 77.375 69.988 77.375 73.8281Z" fill="#B79E56" fill-opacity="0.17"/>
<path d="M105.188 -11C105.188 -7.92792 102.697 -5.4375 99.625 -5.4375C96.5529 -5.4375 94.0625 -7.92792 94.0625 -11C94.0625 -14.0721 96.5529 -16.5625 99.625 -16.5625C102.697 -16.5625 105.188 -14.0721 105.188 -11Z" fill="#B79E56" fill-opacity="0.17"/>
<path d="M105.188 50.1875C105.188 53.2596 102.697 55.75 99.625 55.75C96.5529 55.75 94.0625 53.2596 94.0625 50.1875C94.0625 47.1154 96.5529 44.625 99.625 44.625C102.697 44.625 105.188 47.1154 105.188 50.1875Z" fill="#B79E56" fill-opacity="0.17"/>
<path d="M105.188 -38.8125C105.188 -35.7404 102.697 -33.25 99.625 -33.25C96.5529 -33.25 94.0625 -35.7404 94.0625 -38.8125C94.0625 -41.8846 96.5529 -44.375 99.625 -44.375C102.697 -44.375 105.188 -41.8846 105.188 -38.8125Z" fill="#B79E56" fill-opacity="0.17"/>
<path d="M105.188 75.2188C105.188 78.2908 102.697 80.7812 99.625 80.7812C96.5529 80.7812 94.0625 78.2908 94.0625 75.2188C94.0625 72.1467 96.5529 69.6562 99.625 69.6562C102.697 69.6562 105.188 72.1467 105.188 75.2188Z" fill="#B79E56" fill-opacity="0.17"/>
<path d="M130.219 -12.3906C130.219 -10.0866 128.351 -8.21875 126.047 -8.21875C123.743 -8.21875 121.875 -10.0866 121.875 -12.3906C121.875 -14.6947 123.743 -16.5625 126.047 -16.5625C128.351 -16.5625 130.219 -14.6947 130.219 -12.3906Z" fill="#B79E56" fill-opacity="0.17"/>
<path d="M130.219 48.7969C130.219 51.1009 128.351 52.9688 126.047 52.9688C123.743 52.9688 121.875 51.1009 121.875 48.7969C121.875 46.4928 123.743 44.625 126.047 44.625C128.351 44.625 130.219 46.4928 130.219 48.7969Z" fill="#B79E56" fill-opacity="0.17"/>
<path d="M133 -37.4219C133 -35.1178 131.132 -33.25 128.828 -33.25C126.524 -33.25 124.656 -35.1178 124.656 -37.4219C124.656 -39.7259 126.524 -41.5938 128.828 -41.5938C131.132 -41.5938 133 -39.7259 133 -37.4219Z" fill="#B79E56" fill-opacity="0.17"/>
<path d="M133 76.6094C133 78.9134 131.132 80.7812 128.828 80.7812C126.524 80.7812 124.656 78.9134 124.656 76.6094C124.656 74.3053 126.524 72.4375 128.828 72.4375C131.132 72.4375 133 74.3053 133 76.6094Z" fill="#B79E56" fill-opacity="0.17"/>
<path d="M21.75 -9.60938C21.75 -4.23323 17.3918 0.125 12.0156 0.125C6.63948 0.125 2.28125 -4.23323 2.28125 -9.60938C2.28125 -14.9855 6.63948 -19.3438 12.0156 -19.3438C17.3918 -19.3438 21.75 -14.9855 21.75 -9.60938Z" fill="#B79E56" fill-opacity="0.17"/>
<path d="M21.75 51.5781C21.75 56.9543 17.3918 61.3125 12.0156 61.3125C6.63948 61.3125 2.28125 56.9543 2.28125 51.5781C2.28125 46.202 6.63948 41.8438 12.0156 41.8438C17.3918 41.8438 21.75 46.202 21.75 51.5781Z" fill="#B79E56" fill-opacity="0.17"/>
<path d="M21.75 -37.4219C21.75 -32.0457 17.3918 -27.6875 12.0156 -27.6875C6.63948 -27.6875 2.28125 -32.0457 2.28125 -37.4219C2.28125 -42.798 6.63948 -47.1562 12.0156 -47.1562C17.3918 -47.1562 21.75 -42.798 21.75 -37.4219Z" fill="#B79E56" fill-opacity="0.17"/>
<path d="M21.75 76.6094C21.75 81.9855 17.3918 86.3438 12.0156 86.3438C6.63948 86.3438 2.28125 81.9855 2.28125 76.6094C2.28125 71.2332 6.63948 66.875 12.0156 66.875C17.3918 66.875 21.75 71.2332 21.75 76.6094Z" fill="#B79E56" fill-opacity="0.17"/>
<path d="M-8.84375 -11C-8.84375 -6.39188 -12.5794 -2.65625 -17.1875 -2.65625C-21.7956 -2.65625 -25.5312 -6.39188 -25.5312 -11C-25.5312 -15.6081 -21.7956 -19.3438 -17.1875 -19.3438C-12.5794 -19.3438 -8.84375 -15.6081 -8.84375 -11Z" fill="#B79E56" fill-opacity="0.17"/>
<path d="M-8.84375 50.1875C-8.84375 54.7956 -12.5794 58.5312 -17.1875 58.5312C-21.7956 58.5312 -25.5312 54.7956 -25.5312 50.1875C-25.5312 45.5794 -21.7956 41.8438 -17.1875 41.8438C-12.5794 41.8438 -8.84375 45.5794 -8.84375 50.1875Z" fill="#B79E56" fill-opacity="0.17"/>
<path d="M-36.6562 -9.60938C-36.6562 -5.76927 -39.7693 -2.65625 -43.6094 -2.65625C-47.4495 -2.65625 -50.5625 -5.76927 -50.5625 -9.60938C-50.5625 -13.4495 -47.4495 -16.5625 -43.6094 -16.5625C-39.7693 -16.5625 -36.6562 -13.4495 -36.6562 -9.60938Z" fill="#B79E56" fill-opacity="0.17"/>
<path d="M-36.6562 51.5781C-36.6562 55.4182 -39.7693 58.5312 -43.6094 58.5312C-47.4495 58.5312 -50.5625 55.4182 -50.5625 51.5781C-50.5625 47.738 -47.4495 44.625 -43.6094 44.625C-39.7693 44.625 -36.6562 47.738 -36.6562 51.5781Z" fill="#B79E56" fill-opacity="0.17"/>
<path d="M-36.6562 -37.4219C-36.6562 -33.5818 -39.7693 -30.4688 -43.6094 -30.4688C-47.4495 -30.4688 -50.5625 -33.5818 -50.5625 -37.4219C-50.5625 -41.262 -47.4495 -44.375 -43.6094 -44.375C-39.7693 -44.375 -36.6562 -41.262 -36.6562 -37.4219Z" fill="#B79E56" fill-opacity="0.17"/>
<path d="M-36.6562 76.6094C-36.6562 80.4495 -39.7693 83.5625 -43.6094 83.5625C-47.4495 83.5625 -50.5625 80.4495 -50.5625 76.6094C-50.5625 72.7693 -47.4495 69.6562 -43.6094 69.6562C-39.7693 69.6562 -36.6562 72.7693 -36.6562 76.6094Z" fill="#B79E56" fill-opacity="0.17"/>
<path d="M-67.25 -8.21875C-67.25 -5.14667 -69.7404 -2.65625 -72.8125 -2.65625C-75.8846 -2.65625 -78.375 -5.14667 -78.375 -8.21875C-78.375 -11.2908 -75.8846 -13.7812 -72.8125 -13.7812C-69.7404 -13.7812 -67.25 -11.2908 -67.25 -8.21875Z" fill="#B79E56" fill-opacity="0.17"/>
<path d="M-67.25 52.9688C-67.25 56.0408 -69.7404 58.5312 -72.8125 58.5312C-75.8846 58.5312 -78.375 56.0408 -78.375 52.9688C-78.375 49.8967 -75.8846 47.4062 -72.8125 47.4062C-69.7404 47.4062 -67.25 49.8967 -67.25 52.9688Z" fill="#B79E56" fill-opacity="0.17"/>
<path d="M-67.25 -38.8125C-67.25 -35.7404 -69.7404 -33.25 -72.8125 -33.25C-75.8846 -33.25 -78.375 -35.7404 -78.375 -38.8125C-78.375 -41.8846 -75.8846 -44.375 -72.8125 -44.375C-69.7404 -44.375 -67.25 -41.8846 -67.25 -38.8125Z" fill="#B79E56" fill-opacity="0.17"/>
<path d="M-67.25 75.2188C-67.25 78.2908 -69.7404 80.7812 -72.8125 80.7812C-75.8846 80.7812 -78.375 78.2908 -78.375 75.2188C-78.375 72.1467 -75.8846 69.6562 -72.8125 69.6562C-69.7404 69.6562 -67.25 72.1467 -67.25 75.2188Z" fill="#B79E56" fill-opacity="0.17"/>
<path d="M-97.8438 -9.60938C-97.8438 -7.30531 -99.7116 -5.4375 -102.016 -5.4375C-104.32 -5.4375 -106.188 -7.30531 -106.188 -9.60938C-106.188 -11.9134 -104.32 -13.7812 -102.016 -13.7812C-99.7116 -13.7812 -97.8438 -11.9134 -97.8438 -9.60938Z" fill="#B79E56" fill-opacity="0.17"/>
<path d="M-97.8438 51.5781C-97.8438 53.8822 -99.7116 55.75 -102.016 55.75C-104.32 55.75 -106.188 53.8822 -106.188 51.5781C-106.188 49.2741 -104.32 47.4062 -102.016 47.4062C-99.7116 47.4062 -97.8438 49.2741 -97.8438 51.5781Z" fill="#B79E56" fill-opacity="0.17"/>
</svg>
